<svg xmlns="http://www.w3.org/2000/svg" viewBox="0 0 240 24" width="240" height="24"><path d="M8 5v14l11-7L8 5m8 7M32.066 5l-.132 3.385V19l10.771-6.77L32.066 5m7.868 6.77v.46h.132v-.46h-.132M56.35 5l-.7 2.887V19l9.773-5.774L56.35 5m7.3 5.774v2.452h.7v-2.452h-.7M80.915 5l-1.83 1.9V19l7.8-3.799L80.915 5m6.17 3.799v6.402h1.83V8.799h-1.83M105.39 5l-2.78 1.067V19l6.133-2.133L105.39 5m5.22 2.133v9.734h2.78V7.133h-2.78" fill="#000000"/><g><path d="M129.674 5l-3.348.57V19l5.14-1.14L129.674 5m4.652 1.14v11.72h3.348V6.14h-3.348" fill="#000000"/></g><g><path d="M153.842 5l-3.684.277V19l4.555-.555L153.842 5m4.316.555v12.89h3.684V5.555h-3.684" fill="#000000"/></g><g><path d="M177.938 5l-3.876.109V19l4.219-.218L177.938 5m4.124.218v13.564h3.876V5.218h-3.876" fill="#000000"/></g><g><path d="M201.986 5l-3.972.025V19l4.049-.049L201.986 5m4.028.049v13.902h3.972V5.049h-3.972" fill="#000000"/></g><g><path d="M226 5h-4v14h4V5m4 0v14h4V5h-4" fill="#000000"/></g></svg>