<svg id="eyumwkr4bau1" xmlns="http://www.w3.org/2000/svg" xmlns:xlink="http://www.w3.org/1999/xlink" viewBox="0 0 427 386" shape-rendering="geometricPrecision" text-rendering="geometricPrecision"><defs><clipPath id="eyumwkr4bau2"><rect id="eyumwkr4bau3" width="17" height="17" rx="0" ry="0" transform="matrix(1 0 0 1 410 278.01400000000001)" fill="rgb(255,255,255)" stroke="none" stroke-width="1"/></clipPath><clipPath id="eyumwkr4bau4"><rect id="eyumwkr4bau5" width="80.163900" height="138.951000" rx="0" ry="0" transform="matrix(0.98310500000000 -0.18304200000000 0.18304200000000 0.98310500000000 0 133.68700000000001)" fill="rgb(255,255,255)" stroke="none" stroke-width="1"/></clipPath><clipPath id="eyumwkr4bau6"><rect id="eyumwkr4bau7" width="53" height="86" rx="0" ry="0" transform="matrix(1 0 0 1 346.18599999999998 118.42500000000000)" fill="rgb(255,255,255)" stroke="none" stroke-width="1"/></clipPath><clipPath id="eyumwkr4bau8"><rect id="eyumwkr4bau9" width="17" height="17" rx="0" ry="0" transform="matrix(1 0 0 1 211 309.01400000000001)" fill="rgb(255,255,255)" stroke="none" stroke-width="1"/></clipPath></defs><path id="eyumwkr4bau10" d="M279.857000,100.133000L279.857000,100.133000L279.865000,100.139000C280.142000,100.356000,280.474000,100.489000,280.823000,100.524000L283.109000,100.797000L281.703000,102.533000L281.703000,102.533000L281.698000,102.539000C281.476000,102.817000,281.338000,103.154000,281.302000,103.510000L281.302000,103.510000L281.301000,103.518000L281.095000,105.745000L279.346000,104.367000C279.066000,104.130000,278.718000,103.988000,278.353000,103.959000L276.120000,103.777000L277.512000,101.940000C277.736000,101.659000,277.870000,101.316000,277.892000,100.956000L278.104000,98.730400L279.857000,100.133000Z" transform="matrix(1 0 0 1 -107.19800349000025 121.22108070500011)" fill="none" stroke="rgb(92,104,177)" stroke-width="2"/><g id="eyumwkr4bau11" transform="matrix(1 0 0 1 -166.22635134000012 -7)" opacity="0" clip-path="url(#eyumwkr4bau2)"><path id="eyumwkr4bau12" d="M419.331000,279.290000C415.095000,279.290000,411.662000,282.725000,411.662000,286.961000C411.662000,291.198000,415.095000,294.633000,419.331000,294.633000C423.566000,294.633000,427,291.198000,427,286.961000C427,282.725000,423.566000,279.290000,419.331000,279.290000ZM417.260000,290.988000C416.720000,291.528000,415.845000,291.528000,415.306000,290.988000C414.766000,290.448000,414.766000,289.573000,415.306000,289.033000C415.845000,288.493000,416.720000,288.493000,417.260000,289.033000C417.800000,289.573000,417.800000,290.448000,417.260000,290.988000ZM417.260000,284.890000C416.720000,285.430000,415.845000,285.430000,415.306000,284.890000C414.766000,284.350000,414.766000,283.475000,415.306000,282.935000C415.845000,282.395000,416.720000,282.395000,417.260000,282.935000C417.800000,283.475000,417.800000,284.350000,417.260000,284.890000ZM420.342000,287.905000C419.803000,288.445000,418.928000,288.445000,418.388000,287.905000C417.848000,287.365000,417.848000,286.490000,418.388000,285.950000C418.928000,285.410000,419.803000,285.410000,420.342000,285.950000C420.882000,286.490000,420.882000,287.365000,420.342000,287.905000ZM423.356000,290.988000C422.816000,291.528000,421.942000,291.528000,421.402000,290.988000C420.862000,290.448000,420.862000,289.573000,421.402000,289.033000C421.942000,288.493000,422.816000,288.493000,423.356000,289.033000C423.896000,289.573000,423.896000,290.448000,423.356000,290.988000ZM423.356000,284.890000C422.816000,285.430000,421.942000,285.430000,421.402000,284.890000C420.862000,284.350000,420.862000,283.475000,421.402000,282.935000C421.942000,282.395000,422.816000,282.395000,423.356000,282.935000C423.896000,283.475000,423.896000,284.350000,423.356000,284.890000Z" transform="matrix(1 0 0 1 -1.66199999999992 -0.89499999999992)" fill="rgb(141,164,250)" stroke="none" stroke-width="1"/><path id="eyumwkr4bau13" d="M418.053000,294.505000C413.612000,294.505000,410,290.891000,410,286.450000C410,282.008000,413.612000,278.395000,418.053000,278.395000C422.493000,278.395000,426.105000,282.008000,426.105000,286.450000C426.105000,290.891000,422.493000,294.505000,418.053000,294.505000ZM418.053000,279.162000C414.035000,279.162000,410.767000,282.431000,410.767000,286.450000C410.767000,290.468000,414.035000,293.738000,418.053000,293.738000C422.070000,293.738000,425.338000,290.468000,425.338000,286.450000C425.338000,282.431000,422.070000,279.162000,418.053000,279.162000ZM421.101000,291.265000C420.629000,291.265000,420.186000,291.081000,419.853000,290.748000C419.164000,290.059000,419.164000,288.939000,419.853000,288.250000C420.186000,287.917000,420.629000,287.733000,421.101000,287.733000C421.572000,287.733000,422.016000,287.917000,422.349000,288.250000C422.683000,288.584000,422.866000,289.027000,422.866000,289.499000C422.866000,289.971000,422.683000,290.414000,422.349000,290.748000C422.016000,291.081000,421.573000,291.265000,421.101000,291.265000ZM421.101000,288.500000C420.834000,288.500000,420.583000,288.604000,420.395000,288.793000C420.006000,289.182000,420.006000,289.816000,420.395000,290.205000C420.772000,290.582000,421.429000,290.582000,421.807000,290.205000C421.996000,290.017000,422.099000,289.766000,422.099000,289.499000C422.099000,289.232000,421.995000,288.981000,421.807000,288.793000C421.618000,288.604000,421.368000,288.500000,421.101000,288.500000ZM415.004000,291.265000C414.533000,291.265000,414.090000,291.081000,413.756000,290.748000C413.068000,290.059000,413.068000,288.939000,413.756000,288.250000C414.090000,287.917000,414.533000,287.733000,415.004000,287.733000C415.476000,287.733000,415.919000,287.917000,416.253000,288.250000C416.586000,288.584000,416.770000,289.027000,416.770000,289.499000C416.770000,289.971000,416.586000,290.414000,416.253000,290.748000C415.919000,291.081000,415.476000,291.265000,415.004000,291.265000ZM415.004000,288.500000C414.738000,288.500000,414.487000,288.604000,414.299000,288.793000C413.909000,289.182000,413.909000,289.816000,414.299000,290.205000C414.676000,290.582000,415.334000,290.583000,415.710000,290.205000C415.899000,290.017000,416.003000,289.766000,416.003000,289.499000C416.003000,289.232000,415.899000,288.981000,415.710000,288.793000C415.522000,288.604000,415.271000,288.500000,415.004000,288.500000ZM418.087000,288.181000C417.615000,288.181000,417.172000,287.998000,416.839000,287.664000C416.150000,286.976000,416.150000,285.856000,416.839000,285.167000C417.172000,284.834000,417.615000,284.650000,418.087000,284.650000C418.559000,284.650000,419.002000,284.834000,419.335000,285.167000C419.669000,285.501000,419.852000,285.944000,419.852000,286.416000C419.852000,286.887000,419.669000,287.331000,419.335000,287.664000C419.002000,287.998000,418.559000,288.181000,418.087000,288.181000ZM418.087000,285.417000C417.820000,285.417000,417.569000,285.521000,417.381000,285.709000C416.992000,286.099000,416.992000,286.733000,417.381000,287.122000C417.759000,287.499000,418.416000,287.499000,418.793000,287.122000C418.981000,286.933000,419.085000,286.682000,419.085000,286.416000C419.085000,286.149000,418.981000,285.898000,418.793000,285.709000C418.604000,285.521000,418.354000,285.417000,418.087000,285.417000ZM421.101000,285.167000C420.629000,285.167000,420.186000,284.983000,419.853000,284.650000C419.164000,283.961000,419.164000,282.840000,419.853000,282.152000C420.186000,281.819000,420.629000,281.635000,421.101000,281.635000C421.573000,281.635000,422.016000,281.819000,422.349000,282.152000C422.683000,282.486000,422.866000,282.929000,422.866000,283.401000C422.866000,283.872000,422.683000,284.316000,422.349000,284.650000C422.016000,284.983000,421.572000,285.167000,421.101000,285.167000ZM421.101000,282.402000C420.834000,282.402000,420.584000,282.506000,420.395000,282.695000C420.006000,283.084000,420.006000,283.718000,420.395000,284.107000C420.772000,284.484000,421.430000,284.484000,421.807000,284.107000C421.995000,283.918000,422.099000,283.668000,422.099000,283.401000C422.099000,283.134000,421.995000,282.883000,421.807000,282.695000C421.618000,282.506000,421.368000,282.402000,421.101000,282.402000ZM415.004000,285.167000C414.533000,285.167000,414.090000,284.983000,413.756000,284.650000C413.068000,283.961000,413.068000,282.840000,413.756000,282.152000C414.090000,281.819000,414.533000,281.635000,415.004000,281.635000C415.476000,281.635000,415.919000,281.819000,416.253000,282.152000C416.586000,282.486000,416.770000,282.929000,416.770000,283.401000C416.770000,283.872000,416.586000,284.316000,416.253000,284.650000C415.919000,284.983000,415.476000,285.167000,415.004000,285.167000ZM415.004000,282.402000C414.738000,282.402000,414.487000,282.506000,414.299000,282.695000C413.909000,283.084000,413.909000,283.718000,414.299000,284.107000C414.676000,284.485000,415.334000,284.484000,415.710000,284.107000C415.899000,283.918000,416.003000,283.668000,416.003000,283.401000C416.003000,283.134000,415.899000,282.883000,415.710000,282.695000C415.522000,282.506000,415.271000,282.402000,415.004000,282.402000Z" fill="rgb(92,104,177)" stroke="none" stroke-width="1"/></g><g id="eyumwkr4bau14" transform="matrix(1 0 0 1 1.14536238999997 98.50000000000000)" opacity="0"><path id="eyumwkr4bau15" d="M39.530600,78.564900C39.234900,78.537800,38.954000,78.426600,38.721600,78.244500L35.111100,75.356800C34.683500,75.029200,34.109000,74.958200,33.609500,75.171200C33.110000,75.384200,32.763600,75.847800,32.704000,76.383200L32.266300,80.997100C32.253200,81.287800,32.145500,81.567200,31.959300,81.793300L29.096900,85.572900C28.763600,85.999900,28.687700,86.570800,28.898500,87.065000C29.109300,87.559300,29.573700,87.899700,30.112600,87.954800L34.747700,88.332700C35.039800,88.354900,35.316000,88.470600,35.534800,88.662400L39.158000,91.519100C39.581000,91.863700,40.163800,91.944500,40.669800,91.728700C41.175800,91.512900,41.521000,91.036400,41.565100,90.492700L41.990200,85.909800C42.019700,85.616000,42.133900,85.336300,42.319100,85.104200L45.233400,81.507200C45.583700,81.084600,45.669600,80.505500,45.456000,80.004800C45.242500,79.504000,44.765200,79.165000,44.217700,79.125300L39.530600,78.564900Z" transform="matrix(1 0 0 1 161 105)" fill="rgb(141,164,250)" stroke="none" stroke-width="1"/><path id="eyumwkr4bau16" d="M36.487500,73.481000L36.487500,73.481100L36.495300,73.487200C36.888900,73.795600,37.362500,73.984200,37.859500,74.032600L42.794800,74.622800L42.818000,74.625500L42.841200,74.627200C43.049500,74.642300,43.223900,74.770000,43.300800,74.950400C43.377700,75.130800,43.349100,75.345000,43.215800,75.505800L43.215800,75.505700L43.208700,75.514500L40.132400,79.311400L40.132400,79.311400L40.127700,79.317200C39.812900,79.711800,39.617700,80.188700,39.567300,80.691400L39.567200,80.691400L39.566500,80.698900L39.117800,85.536400L39.117800,85.536400L39.116800,85.547800C39.100600,85.747700,38.972300,85.930000,38.776300,86.013600C38.580200,86.097200,38.359900,86.063600,38.204400,85.936900L38.198200,85.931800L38.191900,85.926900L34.385200,82.925500C33.994700,82.591600,33.508100,82.391400,32.996200,82.351900L28.118800,81.954200C27.911800,81.930300,27.740400,81.799800,27.663100,81.618400C27.584800,81.434800,27.610900,81.217700,27.741000,81.051000L27.745500,81.045200L27.749900,81.039400L30.760600,77.064000C31.079100,76.669700,31.267000,76.185400,31.295700,75.678600L31.754700,70.840000C31.779300,70.639400,31.911400,70.459800,32.108200,70.375900C32.304500,70.292200,32.524900,70.320800,32.686500,70.441100L36.487500,73.481000Z" transform="matrix(1 0 0 1 161.31243782000016 105.36077601000008)" fill="none" fill-opacity="0" stroke="rgb(92,104,177)" stroke-width="2"/></g><g id="eyumwkr4bau17" transform="matrix(1 0 0 1 -140 0)" opacity="0" clip-path="url(#eyumwkr4bau2)"><path id="eyumwkr4bau18" d="M419.331000,279.290000C415.095000,279.290000,411.662000,282.725000,411.662000,286.961000C411.662000,291.198000,415.095000,294.633000,419.331000,294.633000C423.566000,294.633000,427,291.198000,427,286.961000C427,282.725000,423.566000,279.290000,419.331000,279.290000ZM417.260000,290.988000C416.720000,291.528000,415.845000,291.528000,415.306000,290.988000C414.766000,290.448000,414.766000,289.573000,415.306000,289.033000C415.845000,288.493000,416.720000,288.493000,417.260000,289.033000C417.800000,289.573000,417.800000,290.448000,417.260000,290.988000ZM417.260000,284.890000C416.720000,285.430000,415.845000,285.430000,415.306000,284.890000C414.766000,284.350000,414.766000,283.475000,415.306000,282.935000C415.845000,282.395000,416.720000,282.395000,417.260000,282.935000C417.800000,283.475000,417.800000,284.350000,417.260000,284.890000ZM420.342000,287.905000C419.803000,288.445000,418.928000,288.445000,418.388000,287.905000C417.848000,287.365000,417.848000,286.490000,418.388000,285.950000C418.928000,285.410000,419.803000,285.410000,420.342000,285.950000C420.882000,286.490000,420.882000,287.365000,420.342000,287.905000ZM423.356000,290.988000C422.816000,291.528000,421.942000,291.528000,421.402000,290.988000C420.862000,290.448000,420.862000,289.573000,421.402000,289.033000C421.942000,288.493000,422.816000,288.493000,423.356000,289.033000C423.896000,289.573000,423.896000,290.448000,423.356000,290.988000ZM423.356000,284.890000C422.816000,285.430000,421.942000,285.430000,421.402000,284.890000C420.862000,284.350000,420.862000,283.475000,421.402000,282.935000C421.942000,282.395000,422.816000,282.395000,423.356000,282.935000C423.896000,283.475000,423.896000,284.350000,423.356000,284.890000Z" transform="matrix(1 0 0 1 -1.66199999999992 -0.89499999999992)" fill="rgb(141,164,250)" stroke="none" stroke-width="1"/><path id="eyumwkr4bau19" d="M418.053000,294.505000C413.612000,294.505000,410,290.891000,410,286.450000C410,282.008000,413.612000,278.395000,418.053000,278.395000C422.493000,278.395000,426.105000,282.008000,426.105000,286.450000C426.105000,290.891000,422.493000,294.505000,418.053000,294.505000ZM418.053000,279.162000C414.035000,279.162000,410.767000,282.431000,410.767000,286.450000C410.767000,290.468000,414.035000,293.738000,418.053000,293.738000C422.070000,293.738000,425.338000,290.468000,425.338000,286.450000C425.338000,282.431000,422.070000,279.162000,418.053000,279.162000ZM421.101000,291.265000C420.629000,291.265000,420.186000,291.081000,419.853000,290.748000C419.164000,290.059000,419.164000,288.939000,419.853000,288.250000C420.186000,287.917000,420.629000,287.733000,421.101000,287.733000C421.572000,287.733000,422.016000,287.917000,422.349000,288.250000C422.683000,288.584000,422.866000,289.027000,422.866000,289.499000C422.866000,289.971000,422.683000,290.414000,422.349000,290.748000C422.016000,291.081000,421.573000,291.265000,421.101000,291.265000ZM421.101000,288.500000C420.834000,288.500000,420.583000,288.604000,420.395000,288.793000C420.006000,289.182000,420.006000,289.816000,420.395000,290.205000C420.772000,290.582000,421.429000,290.582000,421.807000,290.205000C421.996000,290.017000,422.099000,289.766000,422.099000,289.499000C422.099000,289.232000,421.995000,288.981000,421.807000,288.793000C421.618000,288.604000,421.368000,288.500000,421.101000,288.500000ZM415.004000,291.265000C414.533000,291.265000,414.090000,291.081000,413.756000,290.748000C413.068000,290.059000,413.068000,288.939000,413.756000,288.250000C414.090000,287.917000,414.533000,287.733000,415.004000,287.733000C415.476000,287.733000,415.919000,287.917000,416.253000,288.250000C416.586000,288.584000,416.770000,289.027000,416.770000,289.499000C416.770000,289.971000,416.586000,290.414000,416.253000,290.748000C415.919000,291.081000,415.476000,291.265000,415.004000,291.265000ZM415.004000,288.500000C414.738000,288.500000,414.487000,288.604000,414.299000,288.793000C413.909000,289.182000,413.909000,289.816000,414.299000,290.205000C414.676000,290.582000,415.334000,290.583000,415.710000,290.205000C415.899000,290.017000,416.003000,289.766000,416.003000,289.499000C416.003000,289.232000,415.899000,288.981000,415.710000,288.793000C415.522000,288.604000,415.271000,288.500000,415.004000,288.500000ZM418.087000,288.181000C417.615000,288.181000,417.172000,287.998000,416.839000,287.664000C416.150000,286.976000,416.150000,285.856000,416.839000,285.167000C417.172000,284.834000,417.615000,284.650000,418.087000,284.650000C418.559000,284.650000,419.002000,284.834000,419.335000,285.167000C419.669000,285.501000,419.852000,285.944000,419.852000,286.416000C419.852000,286.887000,419.669000,287.331000,419.335000,287.664000C419.002000,287.998000,418.559000,288.181000,418.087000,288.181000ZM418.087000,285.417000C417.820000,285.417000,417.569000,285.521000,417.381000,285.709000C416.992000,286.099000,416.992000,286.733000,417.381000,287.122000C417.759000,287.499000,418.416000,287.499000,418.793000,287.122000C418.981000,286.933000,419.085000,286.682000,419.085000,286.416000C419.085000,286.149000,418.981000,285.898000,418.793000,285.709000C418.604000,285.521000,418.354000,285.417000,418.087000,285.417000ZM421.101000,285.167000C420.629000,285.167000,420.186000,284.983000,419.853000,284.650000C419.164000,283.961000,419.164000,282.840000,419.853000,282.152000C420.186000,281.819000,420.629000,281.635000,421.101000,281.635000C421.573000,281.635000,422.016000,281.819000,422.349000,282.152000C422.683000,282.486000,422.866000,282.929000,422.866000,283.401000C422.866000,283.872000,422.683000,284.316000,422.349000,284.650000C422.016000,284.983000,421.572000,285.167000,421.101000,285.167000ZM421.101000,282.402000C420.834000,282.402000,420.584000,282.506000,420.395000,282.695000C420.006000,283.084000,420.006000,283.718000,420.395000,284.107000C420.772000,284.484000,421.430000,284.484000,421.807000,284.107000C421.995000,283.918000,422.099000,283.668000,422.099000,283.401000C422.099000,283.134000,421.995000,282.883000,421.807000,282.695000C421.618000,282.506000,421.368000,282.402000,421.101000,282.402000ZM415.004000,285.167000C414.533000,285.167000,414.090000,284.983000,413.756000,284.650000C413.068000,283.961000,413.068000,282.840000,413.756000,282.152000C414.090000,281.819000,414.533000,281.635000,415.004000,281.635000C415.476000,281.635000,415.919000,281.819000,416.253000,282.152000C416.586000,282.486000,416.770000,282.929000,416.770000,283.401000C416.770000,283.872000,416.586000,284.316000,416.253000,284.650000C415.919000,284.983000,415.476000,285.167000,415.004000,285.167000ZM415.004000,282.402000C414.738000,282.402000,414.487000,282.506000,414.299000,282.695000C413.909000,283.084000,413.909000,283.718000,414.299000,284.107000C414.676000,284.485000,415.334000,284.484000,415.710000,284.107000C415.899000,283.918000,416.003000,283.668000,416.003000,283.401000C416.003000,283.134000,415.899000,282.883000,415.710000,282.695000C415.522000,282.506000,415.271000,282.402000,415.004000,282.402000Z" fill="rgb(92,104,177)" stroke="none" stroke-width="1"/></g><g id="eyumwkr4bau20" transform="matrix(1 0 0 1 58.28614856000009 222.23116642499983)" opacity="0"><path id="eyumwkr4bau21" d="M161.655000,144.328000C161.392000,144.304000,161.142000,144.205000,160.936000,144.043000L157.726000,141.477000C157.346000,141.185000,156.836000,141.122000,156.392000,141.312000C155.948000,141.501000,155.640000,141.913000,155.587000,142.389000L155.198000,146.490000C155.186000,146.749000,155.090000,146.997000,154.925000,147.198000L152.381000,150.558000C152.084000,150.937000,152.017000,151.445000,152.204000,151.884000C152.392000,152.323000,152.804000,152.626000,153.283000,152.675000L157.403000,153.011000C157.663000,153.030000,157.909000,153.133000,158.103000,153.304000L161.324000,155.843000C161.700000,156.149000,162.218000,156.221000,162.668000,156.029000C163.117000,155.838000,163.424000,155.414000,163.463000,154.931000L163.841000,150.857000C163.867000,150.596000,163.969000,150.347000,164.134000,150.141000L166.724000,146.944000C167.035000,146.568000,167.112000,146.053000,166.922000,145.608000C166.732000,145.163000,166.308000,144.862000,165.821000,144.826000L161.655000,144.328000Z" transform="matrix(1 0 0 1 -65.57684390499985 -77.75963993000013)" fill="rgb(141,164,250)" stroke="none" stroke-width="1"/><path id="eyumwkr4bau22" d="M161.894000,140.677000L161.894000,140.677000L161.902000,140.683000C162.295000,140.991000,162.769000,141.180000,163.266000,141.228000L168.201000,141.818000L168.224000,141.821000L168.248000,141.823000C168.456000,141.838000,168.630000,141.966000,168.707000,142.146000C168.784000,142.326000,168.755000,142.541000,168.622000,142.701000L168.622000,142.701000L168.615000,142.710000L165.539000,146.507000L165.539000,146.507000L165.534000,146.513000C165.219000,146.907000,165.024000,147.384000,164.974000,147.887000L164.974000,147.887000L164.973000,147.895000L164.524000,152.732000L164.524000,152.732000L164.523000,152.743000C164.507000,152.943000,164.379000,153.126000,164.183000,153.209000C163.987000,153.293000,163.766000,153.259000,163.611000,153.133000L163.605000,153.127000L163.598000,153.123000L159.791000,150.121000C159.401000,149.787000,158.914000,149.587000,158.403000,149.548000L153.525000,149.150000C153.318000,149.126000,153.147000,148.995000,153.069000,148.814000C152.991000,148.631000,153.017000,148.413000,153.147000,148.247000L153.152000,148.241000L153.156000,148.235000L156.167000,144.260000C156.485000,143.865000,156.673000,143.381000,156.702000,142.874000L157.161000,138.036000C157.186000,137.835000,157.318000,137.655000,157.515000,137.572000C157.711000,137.488000,157.931000,137.516000,158.093000,137.637000L161.894000,140.677000Z" transform="matrix(1 0 0 1 -68.67018571499931 -74.87951826000004)" fill="none" stroke="rgb(92,104,177)" stroke-width="2"/></g><path id="eyumwkr4bau23" d="M277.931000,4.529450C277.766000,4.514430,277.610000,4.452620,277.481000,4.351450L275.475000,2.747220C275.238000,2.565200,274.919000,2.525740,274.641000,2.644070C274.364000,2.762390,274.171000,3.020000,274.138000,3.317440L273.895000,5.880680C273.888000,6.042220,273.828000,6.197450,273.724000,6.323050L272.134000,8.422830C271.949000,8.660060,271.907000,8.977180,272.024000,9.251780C272.141000,9.526380,272.399000,9.715490,272.698000,9.746100L275.274000,9.956040C275.436000,9.968340,275.589000,10.032600,275.711000,10.139200L277.724000,11.726200C277.959000,11.917700,278.282000,11.962600,278.564000,11.842700C278.845000,11.722800,279.036000,11.458100,279.061000,11.156000L279.297000,8.609990C279.314000,8.446780,279.377000,8.291380,279.480000,8.162430L281.099000,6.164080C281.294000,5.929340,281.341000,5.607570,281.223000,5.329400C281.104000,5.051220,280.839000,4.862870,280.535000,4.840800L277.931000,4.529450Z" transform="matrix(1 0 0 1 1.69433659999999 272.26889489999991)" fill="rgb(141,164,250)" fill-opacity="0" stroke="none" stroke-width="1"/><g id="eyumwkr4bau24" transform="matrix(1 0 0 -1 -0.41023393000486 641.37569948499652)" opacity="0"><path id="eyumwkr4bau25" d="M208.901848,440.899969C210.036672,441.863485,211.806109,441.896896,212.985397,440.976725L336.767150,344.350606C338.867030,342.710733,337.585678,339.620618,334.796618,339.600752L95.296124,337.905795C92.546373,337.885928,91.190243,340.884838,93.182906,342.577989L208.901848,440.899969Z" transform="matrix(1 0 0 1 6.53567724999971 51.06091858500241)" fill="rgb(141,164,250)" stroke="none" stroke-width="1"/><path id="eyumwkr4bau26" d="M221.888277,357.212173L346.630769,257.064464C348.073216,255.906564,347.233463,253.637390,345.359086,253.626704L101.993450,252.260926C100.138058,252.251212,99.260938,254.469874,100.650247,255.658859L219.273592,357.172346C220.015909,357.807637,221.125870,357.824150,221.888277,357.212173Z" transform="matrix(1 0 0 1 -1.19888767500026 135.04602859500082)" fill="none" stroke="rgb(0,0,0)" stroke-width="2"/></g><g id="eyumwkr4bau27" transform="matrix(1 0 0 1 -0.20994660500438 -136.76591139999641)"><path id="eyumwkr4bau28" d="M211.020178,449.888004C212.163392,450.933654,213.945909,450.969914,215.133914,449.971303L339.830725,345.108378C341.946128,343.328714,340.655304,339.975186,337.845625,339.953626L96.574624,338.114184C93.804545,338.092624,92.438390,341.347173,94.445783,343.184656L211.020178,449.888004Z" transform="matrix(1 0 0 1 5.07952727499969 51.06091859500236)" fill="rgb(141,164,250)" stroke="none" stroke-width="1"/><path id="eyumwkr4bau29" d="M220.591000,362.171000L344.776000,259.074000C346.212000,257.882000,345.376000,255.546000,343.510000,255.535000L101.232000,254.129000C99.384900,254.119000,98.511700,256.403000,99.894800,257.627000L217.988000,362.130000C218.727000,362.784000,219.832000,362.801000,220.591000,362.171000Z" transform="matrix(1 0 0 1 -1.19888767500026 135.04602859500082)" fill="none" stroke="rgb(0,0,0)" stroke-width="2"/></g><g id="eyumwkr4bau30" transform="matrix(1 0 0 1 -2 0.09036938000088)" opacity="0"><g id="eyumwkr4bau31"><path id="eyumwkr4bau32" d="M113.502000,292.766000L111.609000,364.811000C111.478000,369.780000,115.401000,373.914000,120.369000,374.044000L326.721000,379.467000C331.690000,379.598000,335.823000,375.676000,335.955000,370.708000L337.841000,299.333000C337.972000,294.375000,334.067000,290.245000,329.110000,290.099000L230.410000,287.187000C227.883000,287.112000,225.466000,288.221000,223.874000,290.184000C219.687000,295.349000,211.700000,295.028000,207.798000,289.692000C206.295000,287.636000,203.903000,286.361000,201.368000,286.288000L122.760000,284.006000C117.782000,283.861000,113.633000,287.787000,113.502000,292.766000Z" transform="matrix(1 0 0 1 -4.40406551000018 14.05512250999988)" fill="rgb(255,255,255)" stroke="rgb(0,0,0)" stroke-width="2"/><path id="eyumwkr4bau33" display="none" d="M329.209000,289.026000C334.712000,289.191000,339.047000,293.774000,338.905000,299.279000L338.550000,313.037000C324.726000,314.833000,314.158000,323.598000,313.874000,334.418000C313.589000,345.244000,323.693000,354.556000,337.416000,357.070000L337.064000,370.735000C336.922000,376.219000,332.389000,380.566000,326.904000,380.476000L289.620000,379.868000L292.130000,287.911000L329.209000,289.026000Z" clip-rule="evenodd" fill="rgb(0,0,0)" fill-rule="evenodd" stroke="none" stroke-width="1"/><path id="eyumwkr4bau34" display="none" d="M338.905000,299.279000L336.905000,299.227000L338.905000,299.279000ZM329.209000,289.026000L329.269000,287.027000L329.209000,289.026000ZM338.550000,313.037000L340.550000,313.088000L340.506000,314.799000L338.808000,315.020000L338.550000,313.037000ZM337.416000,357.070000L337.776000,355.103000L339.459000,355.411000L339.415000,357.121000L337.416000,357.070000ZM337.064000,370.735000L339.063000,370.787000L339.063000,370.787000L337.064000,370.735000ZM326.904000,380.476000L326.871000,382.476000L326.871000,382.476000L326.904000,380.476000ZM289.620000,379.868000L289.587000,381.868000L287.566000,381.835000L287.621000,379.814000L289.620000,379.868000ZM292.130000,287.911000L290.131000,287.857000L290.185000,285.852000L292.190000,285.912000L292.130000,287.911000ZM336.905000,299.227000C337.019000,294.824000,333.551000,291.157000,329.148000,291.025000L329.269000,287.027000C335.873000,287.225000,341.074000,292.725000,340.904000,299.330000L336.905000,299.227000ZM336.551000,312.985000L336.905000,299.227000L340.904000,299.330000L340.550000,313.088000L336.551000,312.985000ZM338.808000,315.020000C325.478000,316.752000,316.121000,325.053000,315.873000,334.470000L311.875000,334.365000C312.196000,322.143000,323.974000,312.913000,338.293000,311.053000L338.808000,315.020000ZM315.873000,334.470000C315.626000,343.893000,324.544000,352.679000,337.776000,355.103000L337.056000,359.037000C322.843000,356.434000,311.553000,346.595000,311.875000,334.365000L315.873000,334.470000ZM335.064000,370.684000L335.417000,357.018000L339.415000,357.121000L339.063000,370.787000L335.064000,370.684000ZM326.937000,378.477000C331.325000,378.548000,334.951000,375.071000,335.064000,370.684000L339.063000,370.787000C338.894000,377.368000,333.454000,382.583000,326.871000,382.476000L326.937000,378.477000ZM289.653000,377.869000L326.937000,378.477000L326.871000,382.476000L289.587000,381.868000L289.653000,377.869000ZM294.129000,287.966000L291.619000,379.923000L287.621000,379.814000L290.131000,287.857000L294.129000,287.966000ZM329.148000,291.025000L292.070000,289.910000L292.190000,285.912000L329.269000,287.027000L329.148000,291.025000Z" fill="rgb(0,0,0)" stroke="none" stroke-width="1"/><path id="eyumwkr4bau35" display="none" d="M289.943000,370.935000L289.670000,380.220000L286.941000,380.143000L286.208000,380.123000L283.590000,380.049000L283.479000,380.046000L280.024000,379.949000L280.127000,376.453000C280.167000,375.099000,279.554000,373.983000,278.758000,373.960000L261.846000,373.484000C261.050000,373.462000,260.372000,374.542000,260.332000,375.896000L260.230000,379.392000L256.735000,379.293000L254.005000,379.216000L253.272000,379.196000L250.543000,379.119000L253.264000,286.659000L255.993000,286.736000L256.726000,286.757000L259.455000,286.834000L262.859000,286.930000L262.756000,290.425000C262.716000,291.779000,263.329000,292.896000,264.125000,292.918000L281.037000,293.394000C281.833000,293.416000,282.511000,292.337000,282.551000,290.982000L282.654000,287.487000L286.200000,287.586000L286.311000,287.590000L288.929000,287.663000L289.662000,287.684000L292.391000,287.761000L289.943000,370.935000ZM288.204000,312.293000L288.382000,306.234000L285.764000,306.160000L285.586000,312.219000L288.204000,312.293000ZM287.842000,324.608000L288.020000,318.549000L285.402000,318.475000L285.223000,324.534000L287.842000,324.608000ZM287.479000,336.922000L287.658000,330.863000L285.039000,330.790000L284.861000,336.849000L287.479000,336.922000ZM287.117000,349.237000L287.295000,343.178000L284.677000,343.105000L284.499000,349.164000L287.117000,349.237000ZM286.755000,361.552000L286.933000,355.493000L284.315000,355.419000L284.136000,361.478000C284.136000,361.478000,286.755000,361.552000,286.755000,361.552000ZM286.392000,373.867000L286.571000,367.808000L283.952000,367.734000L283.774000,373.793000L286.392000,373.867000ZM254.368000,366.902000L254.190000,372.960000L256.919000,373.037000L257.097000,366.978000L254.368000,366.901000L254.368000,366.902000ZM254.730000,354.587000L254.552000,360.646000L257.281000,360.723000L257.460000,354.664000L254.730000,354.587000ZM255.093000,342.272000L254.914000,348.331000L257.644000,348.408000L257.822000,342.349000L255.093000,342.272000ZM261.371000,339.384000L260.622000,364.829000C260.555000,367.119000,261.592000,369.007000,262.938000,369.045000L277.893000,369.466000C279.239000,369.504000,280.385000,367.677000,280.453000,365.387000L280.696000,357.116000L281.202000,339.942000C281.269000,337.651000,280.232000,335.763000,278.886000,335.725000L263.931000,335.305000C262.585000,335.267000,261.439000,337.093000,261.371000,339.384000ZM255.455000,329.957000L255.277000,336.016000L258.006000,336.093000L258.184000,330.034000L255.455000,329.957000ZM255.817000,317.642000L255.639000,323.701000L258.368000,323.778000L258.547000,317.719000L255.817000,317.642000ZM256.180000,305.328000L256.002000,311.387000L258.731000,311.463000L258.909000,305.404000L256.180000,305.328000ZM261.733000,327.090000C261.665000,329.381000,262.702000,331.268000,264.048000,331.306000L279.004000,331.727000C280.350000,331.765000,281.496000,329.939000,281.563000,327.648000L281.812000,319.189000L282.312000,302.203000C282.379000,299.913000,281.343000,298.025000,279.996000,297.987000L265.041000,297.566000C263.695000,297.528000,262.549000,299.354000,262.482000,301.645000L261.733000,327.090000ZM256.542000,293.013000L256.364000,299.072000L259.093000,299.149000L259.271000,293.090000L256.542000,293.013000ZM286.126000,293.846000L285.948000,299.905000L288.567000,299.978000L288.745000,293.919000L286.126000,293.846000Z" fill="rgb(0,0,0)" stroke="none" stroke-width="1"/><path id="eyumwkr4bau36" display="none" d="M333.257000,264.438000L331.257000,264.472000L333.257000,264.438000ZM323.132000,254.608000L323.157000,256.608000L323.132000,254.608000ZM333.485000,277.931000L331.485000,277.965000L333.485000,277.931000ZM333.490000,278.199000L335.489000,278.165000L335.518000,279.876000L333.832000,280.169000L333.490000,278.199000ZM334.234000,322.240000L334.510000,320.259000L336.205000,320.496000L336.234000,322.206000L334.234000,322.240000ZM334.465000,335.908000L336.465000,335.874000L336.465000,335.874000L334.465000,335.908000ZM324.730000,346.074000L324.783000,348.073000L324.783000,348.073000L324.730000,346.074000ZM287.454000,347.056000L287.507000,349.056000L285.485000,349.109000L285.454000,347.087000L287.454000,347.056000ZM286.040000,255.076000L284.040000,255.107000L284.009000,253.101000L286.015000,253.076000L286.040000,255.076000ZM331.257000,264.472000C331.183000,260.068000,327.562000,256.552000,323.157000,256.608000L323.107000,252.608000C329.714000,252.525000,335.145000,257.798000,335.257000,264.404000L331.257000,264.472000ZM331.485000,277.965000L331.257000,264.472000L335.257000,264.404000L335.485000,277.897000L331.485000,277.965000ZM331.490000,278.232000L331.485000,277.965000L335.485000,277.897000L335.489000,278.165000L331.490000,278.232000ZM333.832000,280.169000C320.588000,282.468000,311.593000,291.161000,311.747000,300.580000L307.748000,300.646000C307.547000,288.420000,318.921000,278.697000,333.148000,276.228000L333.832000,280.169000ZM311.747000,300.580000C311.902000,310.005000,321.187000,318.402000,334.510000,320.259000L333.958000,324.221000C319.647000,322.226000,307.948000,312.878000,307.748000,300.646000L311.747000,300.580000ZM332.465000,335.942000L332.234000,322.274000L336.234000,322.206000L336.465000,335.874000L332.465000,335.942000ZM324.677000,344.074000C329.065000,343.959000,332.540000,340.330000,332.465000,335.942000L336.465000,335.874000C336.576000,342.456000,331.364000,347.899000,324.783000,348.073000L324.677000,344.074000ZM287.401000,345.057000L324.677000,344.074000L324.783000,348.073000L287.507000,349.056000L287.401000,345.057000ZM288.040000,255.045000L289.454000,347.026000L285.454000,347.087000L284.040000,255.107000L288.040000,255.045000ZM323.157000,256.608000L286.065000,257.076000L286.015000,253.076000L323.107000,252.608000L323.157000,256.608000Z" transform="matrix(1 0 0 1 0.01536263000054 2.91717748500005)" fill="rgb(0,0,0)" stroke="none" stroke-width="1"/><path id="eyumwkr4bau37" d="M143.099000,317.452000L147.487000,317.568000L147.143000,330.635000L142.756000,330.520000L143.099000,317.452000ZM149.506000,321.308000L153.324000,321.408000L153.273000,323.346000C154.046000,321.896000,155.230000,321.192000,156.825000,321.234000C158.041000,321.266000,158.979000,321.728000,159.640000,322.620000C160.314000,323.499000,160.631000,324.705000,160.590000,326.237000L160.466000,330.985000L156.477000,330.880000L156.612000,325.733000C156.627000,325.189000,156.517000,324.768000,156.284000,324.470000C156.064000,324.173000,155.745000,324.019000,155.327000,324.008000C155.023000,324,154.723000,324.093000,154.426000,324.288000C154.130000,324.471000,153.882000,324.743000,153.683000,325.105000C153.496000,325.468000,153.396000,325.883000,153.384000,326.352000L153.267000,330.796000L149.259000,330.691000L149.506000,321.308000ZM161.340000,321.486000L165.747000,321.602000L167.059000,327.338000L168.634000,321.678000L172.109000,321.769000L168.839000,331.205000L164.224000,331.084000L161.340000,321.486000ZM176.192000,331.551000C175.128000,331.523000,174.308000,331.159000,173.730000,330.460000C173.153000,329.760000,172.880000,328.822000,172.911000,327.644000L173.065000,321.794000L177.092000,321.900000L176.942000,327.579000C176.935000,327.870000,177.005000,328.100000,177.152000,328.269000C177.313000,328.425000,177.520000,328.506000,177.773000,328.513000C178.026000,328.520000,178.288000,328.451000,178.558000,328.306000L178.697000,330.951000C178.413000,331.159000,178.042000,331.314000,177.583000,331.416000C177.137000,331.518000,176.673000,331.563000,176.192000,331.551000ZM175.116000,320.422000C174.521000,320.407000,174.019000,320.210000,173.611000,319.832000C173.215000,319.441000,173.025000,318.974000,173.039000,318.429000C173.054000,317.885000,173.281000,317.435000,173.721000,317.079000C174.161000,316.723000,174.660000,316.552000,175.217000,316.567000C175.799000,316.582000,176.295000,316.785000,176.702000,317.176000C177.123000,317.567000,177.326000,318.022000,177.313000,318.542000C177.298000,319.099000,177.071000,319.555000,176.631000,319.911000C176.190000,320.267000,175.685000,320.437000,175.116000,320.422000ZM183.741000,331.749000C182.627000,331.720000,181.768000,331.380000,181.164000,330.731000C180.561000,330.069000,180.274000,329.174000,180.303000,328.047000L180.401000,324.344000L179.185000,324.312000L179.247000,321.957000L180.748000,321.996000L182.608000,318.453000L184.527000,318.503000L184.432000,322.093000L186.636000,322.151000L186.574000,324.506000L184.370000,324.448000L184.286000,327.677000C184.277000,327.993000,184.372000,328.243000,184.570000,328.426000C184.768000,328.608000,185.051000,328.704000,185.418000,328.714000C185.760000,328.723000,186.072000,328.655000,186.354000,328.510000L186.436000,331.174000C186.115000,331.355000,185.699000,331.503000,185.189000,331.616000C184.693000,331.717000,184.210000,331.761000,183.741000,331.749000ZM191.848000,331.962000C191.025000,331.940000,190.258000,331.705000,189.548000,331.255000C188.850000,330.794000,188.296000,330.183000,187.885000,329.425000C187.475000,328.654000,187.282000,327.806000,187.306000,326.882000C187.330000,325.970000,187.567000,325.153000,188.016000,324.430000C188.467000,323.694000,189.058000,323.127000,189.791000,322.728000C190.524000,322.329000,191.295000,322.140000,192.105000,322.161000C192.764000,322.179000,193.367000,322.378000,193.914000,322.760000C194.475000,323.142000,194.891000,323.704000,195.162000,324.446000L195.220000,322.243000L199.209000,322.348000L198.955000,331.997000L194.967000,331.892000L195.013000,330.126000C194.347000,331.388000,193.291000,332,191.848000,331.962000ZM193.161000,328.993000C193.668000,329.007000,194.103000,328.841000,194.467000,328.496000C194.844000,328.138000,195.051000,327.713000,195.090000,327.220000L195.094000,327.068000C195.082000,326.560000,194.890000,326.125000,194.520000,325.760000C194.162000,325.396000,193.742000,325.207000,193.261000,325.195000C192.729000,325.181000,192.269000,325.359000,191.879000,325.729000C191.502000,326.086000,191.307000,326.525000,191.293000,327.044000C191.279000,327.576000,191.457000,328.030000,191.827000,328.407000C192.198000,328.784000,192.642000,328.980000,193.161000,328.993000ZM205.035000,332.309000C203.921000,332.279000,203.062000,331.940000,202.458000,331.290000C201.854000,330.628000,201.567000,329.734000,201.597000,328.607000L201.694000,324.903000L200.479000,324.871000L200.541000,322.516000L202.041000,322.556000L203.902000,319.012000L205.820000,319.063000L205.726000,322.652000L207.929000,322.710000L207.867000,325.065000L205.664000,325.008000L205.579000,328.236000C205.571000,328.553000,205.666000,328.803000,205.863000,328.985000C206.061000,329.168000,206.344000,329.264000,206.711000,329.274000C207.053000,329.283000,207.365000,329.215000,207.648000,329.070000L207.730000,331.733000C207.408000,331.915000,206.993000,332.062000,206.483000,332.176000C205.986000,332.277000,205.503000,332.321000,205.035000,332.309000ZM212.472000,332.504000C211.408000,332.476000,210.588000,332.112000,210.011000,331.413000C209.434000,330.714000,209.161000,329.775000,209.192000,328.597000L209.345000,322.747000L213.372000,322.853000L213.223000,328.532000C213.215000,328.824000,213.285000,329.053000,213.433000,329.222000C213.593000,329.378000,213.800000,329.460000,214.053000,329.466000C214.307000,329.473000,214.568000,329.404000,214.838000,329.259000L214.978000,331.905000C214.694000,332.113000,214.322000,332.267000,213.863000,332.369000C213.417000,332.472000,212.953000,332.517000,212.472000,332.504000ZM211.396000,321.376000C210.801000,321.360000,210.299000,321.163000,209.891000,320.785000C209.496000,320.395000,209.305000,319.927000,209.320000,319.383000C209.334000,318.838000,209.561000,318.388000,210.001000,318.032000C210.442000,317.676000,210.940000,317.506000,211.497000,317.520000C212.080000,317.536000,212.575000,317.739000,212.983000,318.129000C213.403000,318.521000,213.607000,318.976000,213.593000,319.495000C213.579000,320.052000,213.351000,320.509000,212.911000,320.864000C212.471000,321.220000,211.966000,321.391000,211.396000,321.376000ZM221.062000,332.730000C219.998000,332.702000,219.054000,332.468000,218.229000,332.028000C217.417000,331.589000,216.786000,330.995000,216.337000,330.249000C215.901000,329.490000,215.695000,328.629000,215.721000,327.667000C215.746000,326.704000,216.003000,325.862000,216.490000,325.140000C216.979000,324.405000,217.639000,323.846000,218.473000,323.463000C219.320000,323.079000,220.275000,322.902000,221.338000,322.930000C222.414000,322.958000,223.359000,323.192000,224.171000,323.631000C224.996000,324.058000,225.627000,324.645000,226.063000,325.392000C226.500000,326.138000,226.705000,326.992000,226.680000,327.955000C226.654000,328.930000,226.397000,329.785000,225.909000,330.519000C225.434000,331.242000,224.773000,331.801000,223.927000,332.197000C223.093000,332.580000,222.138000,332.758000,221.062000,332.730000ZM221.174000,329.882000C221.694000,329.895000,222.123000,329.717000,222.462000,329.345000C222.814000,328.962000,222.998000,328.466000,223.014000,327.858000C223.030000,327.251000,222.872000,326.752000,222.540000,326.363000C222.221000,325.962000,221.802000,325.755000,221.283000,325.741000C220.764000,325.727000,220.328000,325.912000,219.976000,326.296000C219.637000,326.667000,219.459000,327.157000,219.443000,327.764000C219.428000,328.372000,219.579000,328.877000,219.898000,329.278000C220.230000,329.667000,220.655000,329.868000,221.174000,329.882000ZM228.225000,323.377000L232.043000,323.477000L231.992000,325.414000C232.765000,323.965000,233.949000,323.261000,235.544000,323.303000C236.760000,323.335000,237.698000,323.797000,238.359000,324.688000C239.033000,325.568000,239.350000,326.773000,239.309000,328.306000L239.184000,333.054000L235.196000,332.949000L235.331000,327.802000C235.345000,327.257000,235.236000,326.836000,235.003000,326.539000C234.783000,326.242000,234.464000,326.088000,234.046000,326.077000C233.742000,326.069000,233.442000,326.162000,233.145000,326.357000C232.849000,326.539000,232.601000,326.811000,232.402000,327.174000C232.215000,327.536000,232.115000,327.952000,232.103000,328.420000L231.986000,332.865000L227.978000,332.759000L228.225000,323.377000Z" fill="rgb(141,164,250)" stroke="none" stroke-width="1"/><circle id="eyumwkr4bau38" display="none" r="5.147930" transform="matrix(0.60836400000000 0.79365800000000 -0.79365800000000 0.60836400000000 325.96000263600001 369.13803191199997)" fill="rgb(0,0,0)" stroke="rgb(255,255,255)" stroke-width="1"/><circle id="eyumwkr4bau39" r="4.066850" transform="matrix(0.61047700000000 0.79203400000000 -0.79203400000000 0.61047700000000 137.11821219200002 297.09101041900004)" fill="rgb(213,221,254)" stroke="none" stroke-width="1"/><circle id="eyumwkr4bau40" r="4" transform="matrix(0.61047700000000 0.79203400000000 -0.79203400000000 0.61047700000000 150.20543653100003 297.33100385700010)" fill="rgb(213,221,254)" stroke="none" stroke-width="1"/><path id="eyumwkr4bau41" d="M288.030000,336.482884L288.153000,345.520348L285.423000,345.559269L284.689000,345.569973L282.070000,345.606948L281.959000,345.607921L278.504000,345.657545L278.457000,342.254873C278.439000,340.936423,277.779000,339.876798,276.983000,339.888474L260.066000,340.126866C259.270000,340.138542,258.639000,341.216655,258.657000,342.535105L258.703000,345.936803L255.207000,345.986428L252.477000,346.025349L251.744000,346.035079L249.014000,346.074000L247.789000,256.077863L250.519000,256.038942L251.252000,256.028238L253.982000,255.990290L257.387000,255.941639L257.433000,259.344311C257.451000,260.662761,258.111000,261.722386,258.908000,261.710710L275.824000,261.471345C276.621000,261.460642,277.252000,260.382529,277.234000,259.064079L277.187000,255.661408L280.734000,255.611783L280.845000,255.609837L283.464000,255.572862L284.198000,255.563132L286.927000,255.524211L288.030000,336.482884ZM283.791000,279.546274L283.710000,273.648764L281.091000,273.685739L281.172000,279.583249L283.791000,279.546274ZM283.954000,291.532980L283.874000,285.635470L281.255000,285.672445L281.335000,291.570928L283.954000,291.532980ZM284.117000,303.520659L284.037000,297.622176L281.418000,297.660124L281.498000,303.557634L284.117000,303.520659ZM284.280000,315.507365L284.200000,309.609855L281.581000,309.646830L281.661000,315.544340L284.280000,315.507365ZM284.443000,327.494071L284.363000,321.596561L281.744000,321.633536L281.824000,327.531046C281.824000,327.531046,284.443000,327.494071,284.443000,327.494071ZM284.607000,339.480777L284.526000,333.583267L281.907000,333.620242L281.987000,339.517752L284.607000,339.480777ZM252.314000,334.038643L252.395000,339.936153L255.125000,339.897232L255.044000,333.999722L252.314000,334.037670L252.314000,334.038643ZM252.151000,322.051937L252.231000,327.949447L254.961000,327.910526L254.881000,322.013016L252.151000,322.051937ZM251.988000,310.065231L252.068000,315.962741L254.798000,315.923820L254.718000,310.026310L251.988000,310.065231ZM258.138000,306.996307L258.475000,331.763708C258.505000,333.992911,259.621000,335.785224,260.968000,335.765764L275.927000,335.554617C277.274000,335.535157,278.341000,333.712679,278.311000,331.483477L278.201000,323.432661L277.974000,306.716076C277.943000,304.485901,276.827000,302.694560,275.480000,302.713047L260.521000,302.924194C259.174000,302.943655,258.107000,304.767105,258.138000,306.996307ZM251.825000,298.077552L251.905000,303.976035L254.635000,303.937114L254.555000,298.039604L251.825000,298.077552ZM251.662000,286.090846L251.742000,291.988356L254.472000,291.950408L254.392000,286.052898L251.662000,286.090846ZM251.498000,274.104140L251.579000,280.001650L254.309000,279.963702L254.228000,274.066192L251.498000,274.104140ZM257.975000,295.030035C258.005000,297.260210,259.121000,299.051551,260.468000,299.033063L275.427000,298.820944C276.774000,298.802456,277.841000,296.979006,277.811000,294.749804L277.699000,286.516058L277.474000,269.982403C277.443000,267.753200,276.327000,265.960887,274.980000,265.980347L260.021000,266.191494C258.674000,266.209981,257.607000,268.033432,257.637000,270.262634L257.975000,295.030035ZM251.335000,262.117434L251.416000,268.014944L254.146000,267.976996L254.065000,262.079486L251.335000,262.117434ZM280.928000,261.699033L281.008000,267.597516L283.628000,267.560541L283.547000,261.662058L280.928000,261.699033Z" transform="matrix(1 0 0 1 -1.86649642500007 44.99216591500002)" fill="rgb(0,0,0)" stroke="none" stroke-width="1"/><path id="eyumwkr4bau42" d="M323.132000,254.608000C328.638000,254.538000,333.164000,258.933000,333.257000,264.438000L333.485000,277.931000L333.490000,278.199000C319.754000,280.583000,309.570000,289.790000,309.748000,300.613000C309.925000,311.441000,320.417000,320.314000,334.234000,322.240000L334.465000,335.908000C334.558000,341.393000,330.688248,345.929000,324.730000,346.074000L288.153000,346.074000L286.927000,255.121000L323.132000,254.608000Z" transform="matrix(1 0 0 1 -5.84412992000171 50.93209062499986)" clip-rule="evenodd" fill="rgb(0,0,0)" fill-rule="evenodd" stroke="none" stroke-width="1"/><circle id="eyumwkr4bau43" r="5.147930" transform="matrix(0.64165800000000 0.76699000000000 -0.76699000000000 0.64165800000000 323.93697180600009 334.62588953799997)" fill="rgb(0,0,0)" stroke="rgb(255,255,255)" stroke-width="1"/></g><g id="eyumwkr4bau44" transform="matrix(1 0 0 1 8.80264865999976 10.77055904000014)"><path id="eyumwkr4bau45" d="M107.532238,267.385000L108.713238,339.445000C108.795238,344.415000,112.890238,348.378000,117.859238,348.297000L324.255238,344.914000C329.224238,344.832000,333.187238,340.738000,333.106238,335.769000L331.947238,264.378000C331.866238,259.419000,327.789238,255.460000,322.830238,255.525000L224.095238,256.825000C221.568238,256.858000,219.200238,258.069000,217.693238,260.099000C213.731238,265.437000,205.737238,265.458000,201.611238,260.292000C200.022238,258.302000,197.578238,257.131000,195.042238,257.165000L116.408238,258.238000C111.428238,258.306000,107.450238,262.405000,107.532238,267.385000Z" fill="rgb(255,255,255)" stroke="rgb(0,0,0)" stroke-width="2"/><path id="eyumwkr4bau46" d="M323.424309,255.525027C328.788315,255.455729,333.197594,259.806665,333.288195,265.256473L333.510316,278.614194L333.515187,278.879507C320.133424,281.239605,310.212060,290.354297,310.385469,301.068787C310.557904,311.788226,320.779326,320.572267,334.240000,322.478957L334.465042,336.009923C334.555644,341.439931,330.785689,345.930454,324.981098,346.074000L289.347383,346.074000L288.153000,256.032884L323.424309,255.525027Z" clip-rule="evenodd" fill="rgb(0,0,0)" fill-rule="evenodd" stroke="none" stroke-width="1"/><path id="eyumwkr4bau47" d="M288.030000,336.482884L288.153000,345.520348L285.423000,345.559269L284.689000,345.569973L282.070000,345.606948L281.959000,345.607921L278.504000,345.657545L278.457000,342.254873C278.439000,340.936423,277.779000,339.876798,276.983000,339.888474L260.066000,340.126866C259.270000,340.138542,258.639000,341.216655,258.657000,342.535105L258.703000,345.936803L255.207000,345.986428L252.477000,346.025349L251.744000,346.035079L249.014000,346.074000L247.789000,256.077863L250.519000,256.038942L251.252000,256.028238L253.982000,255.990290L257.387000,255.941639L257.433000,259.344311C257.451000,260.662761,258.111000,261.722386,258.908000,261.710710L275.824000,261.471345C276.621000,261.460642,277.252000,260.382529,277.234000,259.064079L277.187000,255.661408L280.734000,255.611783L280.845000,255.609837L283.464000,255.572862L284.198000,255.563132L286.927000,255.524211L288.030000,336.482884ZM283.791000,279.546274L283.710000,273.648764L281.091000,273.685739L281.172000,279.583249L283.791000,279.546274ZM283.954000,291.532980L283.874000,285.635470L281.255000,285.672445L281.335000,291.570928L283.954000,291.532980ZM284.117000,303.520659L284.037000,297.622176L281.418000,297.660124L281.498000,303.557634L284.117000,303.520659ZM284.280000,315.507365L284.200000,309.609855L281.581000,309.646830L281.661000,315.544340L284.280000,315.507365ZM284.443000,327.494071L284.363000,321.596561L281.744000,321.633536L281.824000,327.531046C281.824000,327.531046,284.443000,327.494071,284.443000,327.494071ZM284.607000,339.480777L284.526000,333.583267L281.907000,333.620242L281.987000,339.517752L284.607000,339.480777ZM252.314000,334.038643L252.395000,339.936153L255.125000,339.897232L255.044000,333.999722L252.314000,334.037670L252.314000,334.038643ZM252.151000,322.051937L252.231000,327.949447L254.961000,327.910526L254.881000,322.013016L252.151000,322.051937ZM251.988000,310.065231L252.068000,315.962741L254.798000,315.923820L254.718000,310.026310L251.988000,310.065231ZM258.138000,306.996307L258.475000,331.763708C258.505000,333.992911,259.621000,335.785224,260.968000,335.765764L275.927000,335.554617C277.274000,335.535157,278.341000,333.712679,278.311000,331.483477L278.201000,323.432661L277.974000,306.716076C277.943000,304.485901,276.827000,302.694560,275.480000,302.713047L260.521000,302.924194C259.174000,302.943655,258.107000,304.767105,258.138000,306.996307ZM251.825000,298.077552L251.905000,303.976035L254.635000,303.937114L254.555000,298.039604L251.825000,298.077552ZM251.662000,286.090846L251.742000,291.988356L254.472000,291.950408L254.392000,286.052898L251.662000,286.090846ZM251.498000,274.104140L251.579000,280.001650L254.309000,279.963702L254.228000,274.066192L251.498000,274.104140ZM257.975000,295.030035C258.005000,297.260210,259.121000,299.051551,260.468000,299.033063L275.427000,298.820944C276.774000,298.802456,277.841000,296.979006,277.811000,294.749804L277.699000,286.516058L277.474000,269.982403C277.443000,267.753200,276.327000,265.960887,274.980000,265.980347L260.021000,266.191494C258.674000,266.209981,257.607000,268.033432,257.637000,270.262634L257.975000,295.030035ZM251.335000,262.117434L251.416000,268.014944L254.146000,267.976996L254.065000,262.079486L251.335000,262.117434ZM280.928000,261.699033L281.008000,267.597516L283.628000,267.560541L283.547000,261.662058L280.928000,261.699033Z" fill="rgb(0,0,0)" stroke="none" stroke-width="1"/><path id="eyumwkr4bau48" d="M139.038000,290.787000L143.426000,290.715000L143.640000,303.785000L139.252000,303.857000L139.038000,290.787000ZM145.603000,294.366000L149.422000,294.303000L149.453000,296.241000C150.164000,294.760000,151.317000,294.006000,152.913000,293.980000C154.129000,293.960000,155.086000,294.381000,155.784000,295.244000C156.495000,296.094000,156.863000,297.285000,156.888000,298.817000L156.966000,303.567000L152.976000,303.632000L152.892000,298.484000C152.883000,297.939000,152.756000,297.523000,152.510000,297.236000C152.277000,296.948000,151.952000,296.808000,151.534000,296.815000C151.230000,296.820000,150.934000,296.926000,150.646000,297.133000C150.358000,297.328000,150.122000,297.611000,149.938000,297.981000C149.767000,298.351000,149.685000,298.771000,149.693000,299.239000L149.766000,303.685000L145.757000,303.750000L145.603000,294.366000ZM157.434000,294.039000L161.841000,293.966000L163.398000,299.642000L164.729000,293.919000L168.206000,293.862000L165.341000,303.429000L160.725000,303.505000L157.434000,294.039000ZM172.701000,303.461000C171.638000,303.478000,170.802000,303.150000,170.196000,302.476000C169.590000,301.801000,169.277000,300.875000,169.257000,299.698000L169.161000,293.846000L173.189000,293.780000L173.282000,299.461000C173.287000,299.752000,173.366000,299.979000,173.521000,300.141000C173.688000,300.290000,173.899000,300.363000,174.152000,300.359000C174.405000,300.354000,174.664000,300.274000,174.927000,300.118000L175.179000,302.755000C174.904000,302.975000,174.540000,303.146000,174.085000,303.267000C173.644000,303.388000,173.183000,303.453000,172.701000,303.461000ZM171.152000,292.389000C170.557000,292.398000,170.047000,292.223000,169.623000,291.863000C169.211000,291.489000,169.001000,291.030000,168.992000,290.486000C168.983000,289.941000,169.191000,289.482000,169.616000,289.107000C170.040000,288.733000,170.531000,288.541000,171.089000,288.532000C171.671000,288.523000,172.175000,288.704000,172.599000,289.077000C173.036000,289.450000,173.258000,289.896000,173.267000,290.416000C173.276000,290.973000,173.068000,291.439000,172.644000,291.813000C172.219000,292.187000,171.722000,292.379000,171.152000,292.389000ZM180.253000,303.337000C179.138000,303.355000,178.266000,303.053000,177.635000,302.430000C177.003000,301.794000,176.679000,300.913000,176.660000,299.785000L176.599000,296.081000L175.384000,296.101000L175.345000,293.745000L176.846000,293.720000L178.554000,290.101000L180.472000,290.070000L180.531000,293.660000L182.735000,293.624000L182.774000,295.980000L180.570000,296.016000L180.623000,299.245000C180.628000,299.562000,180.733000,299.807000,180.939000,299.981000C181.144000,300.155000,181.431000,300.239000,181.798000,300.233000C182.140000,300.228000,182.449000,300.147000,182.725000,299.990000L182.921000,302.647000C182.607000,302.842000,182.198000,303.007000,181.694000,303.142000C181.202000,303.264000,180.721000,303.329000,180.253000,303.337000ZM188.361000,303.204000C187.538000,303.218000,186.762000,303.015000,186.033000,302.596000C185.316000,302.164000,184.737000,301.579000,184.294000,300.838000C183.851000,300.086000,183.622000,299.247000,183.606000,298.322000C183.591000,297.410000,183.793000,296.584000,184.212000,295.842000C184.630000,295.088000,185.197000,294.496000,185.912000,294.066000C186.627000,293.636000,187.390000,293.415000,188.200000,293.401000C188.859000,293.391000,189.470000,293.564000,190.033000,293.922000C190.609000,294.280000,191.049000,294.824000,191.352000,295.554000L191.316000,293.350000L195.305000,293.285000L195.464000,302.936000L191.474000,303.001000L191.445000,301.234000C190.833000,302.524000,189.805000,303.180000,188.361000,303.204000ZM189.547000,300.182000C190.053000,300.174000,190.481000,299.990000,190.830000,299.629000C191.191000,299.256000,191.380000,298.822000,191.398000,298.328000L191.395000,298.176000C191.361000,297.669000,191.152000,297.242000,190.766000,296.894000C190.393000,296.545000,189.966000,296.375000,189.484000,296.383000C188.952000,296.391000,188.500000,296.589000,188.126000,296.975000C187.765000,297.348000,187.588000,297.795000,187.597000,298.314000C187.605000,298.846000,187.803000,299.292000,188.189000,299.653000C188.575000,300.014000,189.027000,300.191000,189.547000,300.182000ZM201.551000,302.988000C200.436000,303.006000,199.563000,302.704000,198.933000,302.081000C198.301000,301.445000,197.977000,300.563000,197.958000,299.436000L197.897000,295.732000L196.681000,295.752000L196.643000,293.396000L198.144000,293.371000L199.852000,289.752000L201.770000,289.720000L201.829000,293.311000L204.033000,293.275000L204.071000,295.631000L201.868000,295.667000L201.921000,298.896000C201.926000,299.213000,202.031000,299.458000,202.237000,299.632000C202.442000,299.806000,202.729000,299.890000,203.096000,299.884000C203.438000,299.879000,203.747000,299.797000,204.023000,299.641000L204.219000,302.298000C203.905000,302.493000,203.496000,302.658000,202.992000,302.793000C202.500000,302.915000,202.019000,302.980000,201.551000,302.988000ZM208.990000,302.866000C207.926000,302.883000,207.091000,302.555000,206.484000,301.881000C205.878000,301.207000,205.565000,300.281000,205.545000,299.103000L205.450000,293.252000L209.477000,293.186000L209.570000,298.866000C209.575000,299.157000,209.655000,299.384000,209.809000,299.546000C209.976000,299.695000,210.187000,299.768000,210.440000,299.764000C210.693000,299.760000,210.952000,299.679000,211.215000,299.523000L211.467000,302.160000C211.192000,302.380000,210.828000,302.551000,210.374000,302.672000C209.932000,302.793000,209.471000,302.858000,208.990000,302.866000ZM207.440000,291.794000C206.845000,291.804000,206.335000,291.628000,205.911000,291.268000C205.500000,290.895000,205.289000,290.436000,205.280000,289.891000C205.272000,289.346000,205.479000,288.887000,205.904000,288.513000C206.329000,288.138000,206.819000,287.946000,207.377000,287.937000C207.959000,287.928000,208.463000,288.110000,208.887000,288.483000C209.324000,288.856000,209.546000,289.302000,209.555000,289.821000C209.564000,290.378000,209.356000,290.844000,208.932000,291.218000C208.507000,291.593000,208.010000,291.785000,207.440000,291.794000ZM217.581000,302.725000C216.517000,302.743000,215.564000,302.549000,214.721000,302.145000C213.891000,301.740000,213.236000,301.175000,212.755000,300.448000C212.287000,299.708000,212.045000,298.857000,212.029000,297.894000C212.013000,296.932000,212.234000,296.080000,212.690000,295.337000C213.146000,294.582000,213.783000,293.996000,214.600000,293.577000C215.429000,293.158000,216.375000,292.940000,217.439000,292.922000C218.516000,292.904000,219.469000,293.098000,220.299000,293.502000C221.142000,293.894000,221.797000,294.453000,222.265000,295.180000C222.733000,295.907000,222.975000,296.752000,222.990000,297.715000C223.006000,298.690000,222.786000,299.555000,222.330000,300.310000C221.886000,301.052000,221.250000,301.639000,220.421000,302.070000C219.604000,302.489000,218.657000,302.707000,217.581000,302.725000ZM217.572000,299.875000C218.091000,299.866000,218.513000,299.669000,218.836000,299.284000C219.171000,298.886000,219.334000,298.383000,219.324000,297.775000C219.314000,297.167000,219.135000,296.676000,218.787000,296.301000C218.451000,295.914000,218.024000,295.725000,217.504000,295.733000C216.985000,295.742000,216.558000,295.945000,216.222000,296.344000C215.899000,296.729000,215.742000,297.226000,215.752000,297.833000C215.762000,298.441000,215.935000,298.939000,216.271000,299.326000C216.619000,299.700000,217.053000,299.883000,217.572000,299.875000ZM224.339000,293.075000L228.157000,293.012000L228.189000,294.950000C228.899000,293.469000,230.053000,292.715000,231.648000,292.689000C232.864000,292.669000,233.821000,293.091000,234.519000,293.953000C235.230000,294.803000,235.598000,295.994000,235.623000,297.527000L235.701000,302.276000L231.712000,302.341000L231.627000,297.193000C231.618000,296.649000,231.491000,296.233000,231.246000,295.945000C231.013000,295.658000,230.688000,295.517000,230.270000,295.524000C229.966000,295.529000,229.670000,295.635000,229.382000,295.843000C229.094000,296.038000,228.858000,296.320000,228.674000,296.691000C228.502000,297.061000,228.420000,297.480000,228.428000,297.949000L228.501000,302.394000L224.493000,302.460000L224.339000,293.075000Z" transform="matrix(1 0 0 1 -6.84417643500001 -0.83373034000002)" fill="rgb(141,164,250)" stroke="none" stroke-width="1"/><circle id="eyumwkr4bau49" r="4" transform="matrix(0.64370200000000 0.76527700000000 -0.76527700000000 0.64370200000000 145.27902232100004 270.38116774500003)" fill="rgb(213,221,254)" stroke="none" stroke-width="1"/><circle id="eyumwkr4bau50" r="4.066850" transform="matrix(0.64370200000000 0.76527700000000 -0.76527700000000 0.64370200000000 132.19382356500000 270.69915543600013)" fill="rgb(213,221,254)" stroke="none" stroke-width="1"/><circle id="eyumwkr4bau51" r="11.666000" transform="matrix(0.61047700000000 0.79203400000000 -0.79203400000000 0.61047700000000 227.87998627400006 324.81004634300007)" fill="rgb(213,221,254)" stroke="none" stroke-width="1"/><circle id="eyumwkr4bau52" r="11.666000" transform="matrix(0.61047700000000 0.79203400000000 -0.79203400000000 0.61047700000000 216.32064428900006 363.00021875300001)" fill="rgb(213,221,254)" stroke="none" stroke-width="1"/></g></g><g id="eyumwkr4bau53"><path id="eyumwkr4bau54" d="M204.997000,309.875000C208.411000,311.728000,208.501000,316.596000,205.157000,318.573000L105.164000,377.699000C101.860000,379.653000,97.678300,377.309000,97.619900,373.471000L95.880900,259.132000C95.822800,255.308000,99.904200,252.837000,103.265000,254.661000L204.997000,309.875000Z" fill="rgb(141,164,250)" stroke="none" stroke-width="1"/><path id="eyumwkr4bau55" d="M210.731000,316.720000L99.737600,379.672000C98.404300,380.428000,96.750900,379.465000,96.750900,377.932000L96.750900,256.071000C96.750900,254.563000,98.356500,253.598000,99.688500,254.305000L210.682000,313.214000C212.076000,313.954000,212.104000,315.941000,210.731000,316.720000Z" fill="none" stroke="rgb(0,0,0)" stroke-width="2"/></g><g id="eyumwkr4bau56"><path id="eyumwkr4bau57" d="M229.167000,312.396000C227.722000,313.110000,227.673000,315.153000,229.083000,315.937000L342.280000,378.930000C343.613000,379.671000,345.251000,378.709000,345.251000,377.184000L345.251000,258.304000C345.251000,256.821000,343.693000,255.852000,342.364000,256.508000L229.167000,312.396000Z" fill="rgb(141,164,250)" stroke="none" stroke-width="1"/><path id="eyumwkr4bau58" d="M230.194000,315.993000L342.773000,379.203000C344.106000,379.952000,345.751000,378.990000,345.751000,377.462000L345.751000,258.423000C345.751000,256.938000,344.190000,255.969000,342.861000,256.629000L230.281000,312.457000C228.842000,313.171000,228.792000,315.205000,230.194000,315.993000Z" fill="none" stroke="rgb(21,23,44)" stroke-width="2"/></g><g id="eyumwkr4bau59"><path id="eyumwkr4bau60" d="M219.834000,312.831000C220.720000,312.363000,221.780000,312.369000,222.661000,312.844000L341.310000,376.929000C344.051000,378.409000,343,382.568000,339.886000,382.568000L99.860400,382.568000C96.730500,382.568000,95.690400,378.376000,98.457800,376.915000L219.834000,312.831000Z" fill="rgb(213,221,254)" stroke="none" stroke-width="1"/><path id="eyumwkr4bau61" d="M222.690000,312.230000L342.885000,377.442000C344.709000,378.431000,344.008000,381.199000,341.934000,381.199000L98.907900,381.199000C96.823600,381.199000,96.127200,378.410000,97.967600,377.433000L220.799000,312.221000C221.391000,311.907000,222.101000,311.910000,222.690000,312.230000Z" fill="none" stroke="rgb(0,0,0)" stroke-width="2"/></g><g id="eyumwkr4bau62" clip-path="url(#eyumwkr4bau8)"><path id="eyumwkr4bau63" d="M220.331000,310.290000C216.095000,310.290000,212.662000,313.725000,212.662000,317.961000C212.662000,322.198000,216.095000,325.633000,220.331000,325.633000C224.566000,325.633000,228,322.198000,228,317.961000C228,313.725000,224.566000,310.290000,220.331000,310.290000ZM218.260000,321.988000C217.720000,322.528000,216.845000,322.528000,216.306000,321.988000C215.766000,321.448000,215.766000,320.573000,216.306000,320.033000C216.845000,319.493000,217.720000,319.493000,218.260000,320.033000C218.800000,320.573000,218.800000,321.448000,218.260000,321.988000ZM218.260000,315.890000C217.720000,316.430000,216.845000,316.430000,216.306000,315.890000C215.766000,315.350000,215.766000,314.475000,216.306000,313.935000C216.845000,313.395000,217.720000,313.395000,218.260000,313.935000C218.800000,314.475000,218.800000,315.350000,218.260000,315.890000ZM221.342000,318.905000C220.803000,319.445000,219.928000,319.445000,219.388000,318.905000C218.848000,318.365000,218.848000,317.490000,219.388000,316.950000C219.928000,316.410000,220.803000,316.410000,221.342000,316.950000C221.882000,317.490000,221.882000,318.365000,221.342000,318.905000ZM224.356000,321.988000C223.816000,322.528000,222.942000,322.528000,222.402000,321.988000C221.862000,321.448000,221.862000,320.573000,222.402000,320.033000C222.942000,319.493000,223.816000,319.493000,224.356000,320.033000C224.896000,320.573000,224.896000,321.448000,224.356000,321.988000ZM224.356000,315.890000C223.816000,316.430000,222.942000,316.430000,222.402000,315.890000C221.862000,315.350000,221.862000,314.475000,222.402000,313.935000C222.942000,313.395000,223.816000,313.395000,224.356000,313.935000C224.896000,314.475000,224.896000,315.350000,224.356000,315.890000Z" fill="rgb(141,164,250)" stroke="none" stroke-width="1"/><path id="eyumwkr4bau64" d="M219.053000,325.505000C214.612000,325.505000,211,321.891000,211,317.450000C211,313.008000,214.612000,309.395000,219.053000,309.395000C223.493000,309.395000,227.105000,313.008000,227.105000,317.450000C227.105000,321.891000,223.493000,325.505000,219.053000,325.505000ZM219.053000,310.162000C215.035000,310.162000,211.767000,313.431000,211.767000,317.450000C211.767000,321.468000,215.035000,324.738000,219.053000,324.738000C223.070000,324.738000,226.338000,321.468000,226.338000,317.450000C226.338000,313.431000,223.070000,310.162000,219.053000,310.162000ZM222.101000,322.265000C221.629000,322.265000,221.186000,322.081000,220.853000,321.748000C220.164000,321.059000,220.164000,319.939000,220.853000,319.250000C221.186000,318.917000,221.629000,318.733000,222.101000,318.733000C222.572000,318.733000,223.016000,318.917000,223.349000,319.250000C223.683000,319.584000,223.866000,320.027000,223.866000,320.499000C223.866000,320.971000,223.683000,321.414000,223.349000,321.748000C223.016000,322.081000,222.573000,322.265000,222.101000,322.265000ZM222.101000,319.500000C221.834000,319.500000,221.583000,319.604000,221.395000,319.793000C221.006000,320.182000,221.006000,320.816000,221.395000,321.205000C221.772000,321.582000,222.429000,321.582000,222.807000,321.205000C222.996000,321.017000,223.099000,320.766000,223.099000,320.499000C223.099000,320.232000,222.995000,319.981000,222.807000,319.793000C222.618000,319.604000,222.368000,319.500000,222.101000,319.500000ZM216.004000,322.265000C215.533000,322.265000,215.090000,322.081000,214.756000,321.748000C214.068000,321.059000,214.068000,319.939000,214.756000,319.250000C215.090000,318.917000,215.533000,318.733000,216.004000,318.733000C216.476000,318.733000,216.919000,318.917000,217.253000,319.250000C217.586000,319.584000,217.770000,320.027000,217.770000,320.499000C217.770000,320.971000,217.586000,321.414000,217.253000,321.748000C216.919000,322.081000,216.476000,322.265000,216.004000,322.265000ZM216.004000,319.500000C215.738000,319.500000,215.487000,319.604000,215.299000,319.793000C214.909000,320.182000,214.909000,320.816000,215.299000,321.205000C215.676000,321.582000,216.334000,321.583000,216.710000,321.205000C216.899000,321.017000,217.003000,320.766000,217.003000,320.499000C217.003000,320.232000,216.899000,319.981000,216.710000,319.793000C216.522000,319.604000,216.271000,319.500000,216.004000,319.500000ZM219.087000,319.181000C218.615000,319.181000,218.172000,318.998000,217.839000,318.664000C217.150000,317.976000,217.150000,316.856000,217.839000,316.167000C218.172000,315.834000,218.615000,315.650000,219.087000,315.650000C219.559000,315.650000,220.002000,315.834000,220.335000,316.167000C220.669000,316.501000,220.852000,316.944000,220.852000,317.416000C220.852000,317.887000,220.669000,318.331000,220.335000,318.664000C220.002000,318.998000,219.559000,319.181000,219.087000,319.181000ZM219.087000,316.417000C218.820000,316.417000,218.569000,316.521000,218.381000,316.709000C217.992000,317.099000,217.992000,317.733000,218.381000,318.122000C218.759000,318.499000,219.416000,318.499000,219.793000,318.122000C219.981000,317.933000,220.085000,317.682000,220.085000,317.416000C220.085000,317.149000,219.981000,316.898000,219.793000,316.709000C219.604000,316.521000,219.354000,316.417000,219.087000,316.417000ZM222.101000,316.167000C221.629000,316.167000,221.186000,315.983000,220.853000,315.650000C220.164000,314.961000,220.164000,313.840000,220.853000,313.152000C221.186000,312.819000,221.629000,312.635000,222.101000,312.635000C222.573000,312.635000,223.016000,312.819000,223.349000,313.152000C223.683000,313.486000,223.866000,313.929000,223.866000,314.401000C223.866000,314.872000,223.683000,315.316000,223.349000,315.650000C223.016000,315.983000,222.572000,316.167000,222.101000,316.167000ZM222.101000,313.402000C221.834000,313.402000,221.584000,313.506000,221.395000,313.695000C221.006000,314.084000,221.006000,314.718000,221.395000,315.107000C221.772000,315.484000,222.430000,315.484000,222.807000,315.107000C222.995000,314.918000,223.099000,314.668000,223.099000,314.401000C223.099000,314.134000,222.995000,313.883000,222.807000,313.695000C222.618000,313.506000,222.368000,313.402000,222.101000,313.402000ZM216.004000,316.167000C215.533000,316.167000,215.090000,315.983000,214.756000,315.650000C214.068000,314.961000,214.068000,313.840000,214.756000,313.152000C215.090000,312.819000,215.533000,312.635000,216.004000,312.635000C216.476000,312.635000,216.919000,312.819000,217.253000,313.152000C217.586000,313.486000,217.770000,313.929000,217.770000,314.401000C217.770000,314.872000,217.586000,315.316000,217.253000,315.650000C216.919000,315.983000,216.476000,316.167000,216.004000,316.167000ZM216.004000,313.402000C215.738000,313.402000,215.487000,313.506000,215.299000,313.695000C214.909000,314.084000,214.909000,314.718000,215.299000,315.107000C215.676000,315.485000,216.334000,315.484000,216.710000,315.107000C216.899000,314.918000,217.003000,314.668000,217.003000,314.401000C217.003000,314.134000,216.899000,313.883000,216.710000,313.695000C216.522000,313.506000,216.271000,313.402000,216.004000,313.402000Z" fill="rgb(92,104,177)" stroke="none" stroke-width="1"/></g><g id="eyumwkr4bau65"><circle id="eyumwkr4bau66" r="18.768800" transform="matrix(0.99999600000000 0.00266600000000 -0.00266600000000 0.99999600000000 219.32487624999999 317.32487615000002)" fill="rgb(255,255,255)" stroke="rgb(0,0,0)" stroke-width="5"/><circle id="eyumwkr4bau67" r="15.142900" transform="matrix(0.99999600000000 0.00266600000000 -0.00266600000000 0.99999600000000 219.08687557200000 317.37987642200000)" fill="rgb(255,255,255)" stroke="rgb(0,0,0)" stroke-width="1"/></g><g id="eyumwkr4bau68" transform="matrix(1 0 0 1 104.03564690000012 98.41952681500049)" opacity="0" clip-path="url(#eyumwkr4bau4)"><path id="eyumwkr4bau69" d="M59.767500,169.350000C61.090600,154.940000,53.896500,142.264000,43.699000,141.037000C33.501400,139.810000,24.162000,150.496000,22.838800,164.905000C21.515600,179.315000,28.709700,191.991000,38.907300,193.219000C49.104900,194.446000,58.444300,183.760000,59.767500,169.350000Z" fill="rgb(255,110,97)" stroke="none" stroke-width="1"/><path id="eyumwkr4bau70" d="M42.510800,234.100000C43.014700,237.485000,43.430700,240.883000,43.648900,244.314000C43.972700,249.116000,44.168800,256.328000,44.237200,265.951000C44.446900,266.252000,44.632100,266.282000,44.792700,266.041000C45.033700,265.680000,45.152600,254.917000,44.783700,247.063000C44.581100,242.674000,44.029100,238.338000,43.367900,234.019000C43.340700,234.024000,42.501800,234.102000,42.510800,234.100000Z" fill="rgb(92,104,177)" stroke="none" stroke-width="1"/><path id="eyumwkr4bau71" d="M40.555500,225.247000C40.728700,226.266000,40.902800,227.285000,41.074500,228.305000C41.093200,228.301000,41.921300,228.188000,41.916900,228.163000C40.949700,222.296000,39.984500,216.429000,39.626400,210.470000C39.219700,203.724000,39.898600,196.975000,42.664900,190.804000C42.988800,190.202000,42.062200,189.740000,41.811600,190.351000C36.893800,201.391000,38.605800,213.696000,40.555500,225.247000Z" fill="rgb(92,104,177)" stroke="none" stroke-width="1"/><path id="eyumwkr4bau72" d="M62.077000,166.653000C63.400100,152.243000,56.206000,139.567000,46.008500,138.339000C35.810900,137.112000,26.471500,147.798000,25.148300,162.208000C23.825200,176.617000,31.019300,189.294000,41.216800,190.521000C51.414400,191.748000,60.753800,181.062000,62.077000,166.653000Z" fill="none" stroke="rgb(92,104,177)" stroke-width="1.500000"/></g><g id="eyumwkr4bau73" transform="matrix(1 0 0 1 -82.26481348999999 120.79230719500052)" opacity="0" clip-path="url(#eyumwkr4bau6)"><path id="eyumwkr4bau74" d="M380.829000,147.003000C383.371000,138.444000,380.129000,129.916000,373.587000,127.955000C367.046000,125.994000,359.682000,131.342000,357.140000,139.901000C354.598000,148.460000,357.841000,156.988000,364.382000,158.949000C370.924000,160.910000,378.287000,155.562000,380.829000,147.003000Z" fill="rgb(255,110,97)" stroke="none" stroke-width="1"/><path id="eyumwkr4bau75" d="M361.553000,184.334000C361.492000,186.453000,361.374000,188.570000,361.125000,190.683000C360.789000,193.643000,360.099000,198.053000,359.054000,203.915000C359.154000,204.122000,359.269000,204.163000,359.399000,204.036000C359.594000,203.845000,360.887000,197.313000,361.539000,192.491000C361.906000,189.797000,362.044000,187.094000,362.110000,184.388000C362.092000,184.388000,361.547000,184.334000,361.553000,184.334000Z" fill="rgb(92,104,177)" stroke="none" stroke-width="1"/><path id="eyumwkr4bau76" d="M361.599000,178.726000C361.594000,179.368000,361.590000,180.009000,361.584000,180.650000C361.597000,180.650000,362.140000,180.680000,362.140000,180.665000C362.186000,176.977000,362.233000,173.290000,362.679000,169.620000C363.184000,165.465000,364.385000,161.438000,366.858000,158.013000C367.134000,157.686000,366.592000,157.293000,366.362000,157.635000C361.958000,163.765000,361.659000,171.461000,361.599000,178.726000Z" fill="rgb(92,104,177)" stroke="none" stroke-width="1"/><path id="eyumwkr4bau77" d="M382.657000,145.623000C385.199000,137.064000,381.957000,128.536000,375.415000,126.575000C368.873000,124.614000,361.510000,129.963000,358.968000,138.522000C356.426000,147.080000,359.668000,155.609000,366.210000,157.570000C372.751000,159.531000,380.115000,154.182000,382.657000,145.623000Z" fill="none" stroke="rgb(92,104,177)" stroke-width="1.500000"/></g><script><![CDATA[!function(t,n){"object"==typeof exports&&"undefined"!=typeof module?module.exports=n():"function"==typeof define&&define.amd?define(n):(t=t||self).__SVGATOR_PLAYER__=n()}(this,(function(){"use strict";function t(n){return(t="function"==typeof Symbol&&"symbol"==typeof Symbol.iterator?function(t){return typeof t}:function(t){return t&&"function"==typeof Symbol&&t.constructor===Symbol&&t!==Symbol.prototype?"symbol":typeof t})(n)}function n(t,n){if(!(t instanceof n))throw new TypeError("Cannot call a class as a function")}function r(t,n){for(var r=0;r<n.length;r++){var e=n[r];e.enumerable=e.enumerable||!1,e.configurable=!0,"value"in e&&(e.writable=!0),Object.defineProperty(t,e.key,e)}}function e(t,n,e){return n&&r(t.prototype,n),e&&r(t,e),t}var i=1e-5,u=Math.abs;function o(t){return t}function a(t,n,r){var e=1-r;return 3*r*e*(t*e+n*r)+r*r*r}function l(){var t=arguments.length>0&&void 0!==arguments[0]?arguments[0]:0,n=arguments.length>1&&void 0!==arguments[1]?arguments[1]:0,r=arguments.length>2&&void 0!==arguments[2]?arguments[2]:1,e=arguments.length>3&&void 0!==arguments[3]?arguments[3]:1;return t<0||t>1||r<0||r>1?null:u(t-n)<=i&&u(r-e)<=i?o:function(o){if(o<=0)return t>0?o*n/t:0===n&&r>0?o*e/r:0;if(o>=1)return r<1?1+(o-1)*(e-1)/(r-1):1===r&&t<1?1+(o-1)*(n-1)/(t-1):1;for(var l,f=0,s=1;f<s;){var c=a(t,r,l=(f+s)/2);if(u(o-c)<i)break;c<o?f=l:s=l}return a(n,e,l)}}function f(){return 1}function s(t){return 1===t?1:0}function c(){var t=arguments.length>0&&void 0!==arguments[0]?arguments[0]:1,n=arguments.length>1&&void 0!==arguments[1]?arguments[1]:0;if(1===t){if(0===n)return s;if(1===n)return f}var r=1/t;return function(t){return t>=1?1:(t+=n*r)-t%r}}function v(t){var n=arguments.length>1&&void 0!==arguments[1]?arguments[1]:2;if(Number.isInteger(t))return t;var r=Math.pow(10,n);return Math.round(t*r)/r}var h=Math.PI/180;function y(t,n,r){return t>=.5?r:n}function d(t,n,r){return 0===t||n===r?n:t*(r-n)+n}function g(t,n,r){var e=d(t,n,r);return e<=0?0:e}function m(t,n,r){return 0===t?n:1===t?r:{x:d(t,n.x,r.x),y:d(t,n.y,r.y)}}function p(t,n,r){return 0===t?n:1===t?r:{x:g(t,n.x,r.x),y:g(t,n.y,r.y)}}function b(t,n,r){var e=function(t,n,r){return Math.round(d(t,n,r))}(t,n,r);return e<=0?0:e>=255?255:e}function w(t,n,r){return 0===t?n:1===t?r:{r:b(t,n.r,r.r),g:b(t,n.g,r.g),b:b(t,n.b,r.b),a:d(t,null==n.a?1:n.a,null==r.a?1:r.a)}}function A(t,n,r){if(0===t)return n;if(1===t)return r;var e=n.length;if(e!==r.length)return y(t,n,r);for(var i=[],u=0;u<e;u++)i.push(w(t,n[u],r[u]));return i}function x(t,n,r){var e=n.length;if(e!==r.length)return y(t,n,r);for(var i=new Array(e),u=0;u<e;u++)i[u]=d(t,n[u],r[u]);return i}function k(t,n){for(var r=[],e=0;e<t;e++)r.push(n);return r}function S(t,n){if(--n<=0)return t;var r=(t=Object.assign([],t)).length;do{for(var e=0;e<r;e++)t.push(t[e])}while(--n>0);return t}var _=6,M=/\.0+$/g;function I(t){return Number.isInteger(t)?t+"":t.toFixed(_).replace(M,"")}function E(t){var n=arguments.length>1&&void 0!==arguments[1]?arguments[1]:" ";return t&&t.length?t.map(I).join(n):""}function F(t){return I(t.x)+","+I(t.y)}function B(t){return t?null==t.a||t.a>=1?"rgb("+t.r+","+t.g+","+t.b+")":"rgba("+t.r+","+t.g+","+t.b+","+t.a+")":"transparent"}var j={f:null,i:p,u:function(t,n){return function(r){var e=n(r);t.setAttribute("rx",I(e.x)),t.setAttribute("ry",I(e.y))}}},q={f:null,i:function(t,n,r){return 0===t?n:1===t?r:{width:g(t,n.width,r.width),height:g(t,n.height,r.height)}},u:function(t,n){return function(r){var e=n(r);t.setAttribute("width",I(e.width)),t.setAttribute("height",I(e.height))}}},P=Math.sin,O=Math.cos,z=Math.acos,L=Math.asin,C=Math.tan,R=Math.atan2,T=Math.PI/180,V=180/Math.PI,D=Math.sqrt,N=function(){function t(){var r=arguments.length>0&&void 0!==arguments[0]?arguments[0]:1,e=arguments.length>1&&void 0!==arguments[1]?arguments[1]:0,i=arguments.length>2&&void 0!==arguments[2]?arguments[2]:0,u=arguments.length>3&&void 0!==arguments[3]?arguments[3]:1,o=arguments.length>4&&void 0!==arguments[4]?arguments[4]:0,a=arguments.length>5&&void 0!==arguments[5]?arguments[5]:0;n(this,t),this.m=[r,e,i,u,o,a],this.i=null,this.w=null,this.s=null}return e(t,[{key:"point",value:function(t,n){var r=this.m;return{x:r[0]*t+r[2]*n+r[4],y:r[1]*t+r[3]*n+r[5]}}},{key:"translateSelf",value:function(){var t=arguments.length>0&&void 0!==arguments[0]?arguments[0]:0,n=arguments.length>1&&void 0!==arguments[1]?arguments[1]:0;if(!t&&!n)return this;var r=this.m;return r[4]+=r[0]*t+r[2]*n,r[5]+=r[1]*t+r[3]*n,this.w=this.s=this.i=null,this}},{key:"rotateSelf",value:function(){var t=arguments.length>0&&void 0!==arguments[0]?arguments[0]:0;if(t%=360){var n=P(t*=T),r=O(t),e=this.m,i=e[0],u=e[1];e[0]=i*r+e[2]*n,e[1]=u*r+e[3]*n,e[2]=e[2]*r-i*n,e[3]=e[3]*r-u*n,this.w=this.s=this.i=null}return this}},{key:"scaleSelf",value:function(){var t=arguments.length>0&&void 0!==arguments[0]?arguments[0]:1,n=arguments.length>1&&void 0!==arguments[1]?arguments[1]:1;if(1!==t||1!==n){var r=this.m;r[0]*=t,r[1]*=t,r[2]*=n,r[3]*=n,this.w=this.s=this.i=null}return this}},{key:"skewSelf",value:function(t,n){if(n%=360,(t%=360)||n){var r=this.m,e=r[0],i=r[1],u=r[2],o=r[3];t&&(t=C(t*T),r[2]+=e*t,r[3]+=i*t),n&&(n=C(n*T),r[0]+=u*n,r[1]+=o*n),this.w=this.s=this.i=null}return this}},{key:"resetSelf",value:function(){var t=arguments.length>0&&void 0!==arguments[0]?arguments[0]:1,n=arguments.length>1&&void 0!==arguments[1]?arguments[1]:0,r=arguments.length>2&&void 0!==arguments[2]?arguments[2]:0,e=arguments.length>3&&void 0!==arguments[3]?arguments[3]:1,i=arguments.length>4&&void 0!==arguments[4]?arguments[4]:0,u=arguments.length>5&&void 0!==arguments[5]?arguments[5]:0,o=this.m;return o[0]=t,o[1]=n,o[2]=r,o[3]=e,o[4]=i,o[5]=u,this.w=this.s=this.i=null,this}},{key:"recomposeSelf",value:function(){var t=arguments.length>0&&void 0!==arguments[0]?arguments[0]:null,n=arguments.length>1&&void 0!==arguments[1]?arguments[1]:null,r=arguments.length>2&&void 0!==arguments[2]?arguments[2]:null,e=arguments.length>3&&void 0!==arguments[3]?arguments[3]:null,i=arguments.length>4&&void 0!==arguments[4]?arguments[4]:null;return this.isIdentity||this.resetSelf(),t&&(t.x||t.y)&&this.translateSelf(t.x,t.y),n&&this.rotateSelf(n),r&&(r.x&&this.skewSelf(r.x,0),r.y&&this.skewSelf(0,r.y)),!e||1===e.x&&1===e.y||this.scaleSelf(e.x,e.y),i&&(i.x||i.y)&&this.translateSelf(i.x,i.y),this}},{key:"decompose",value:function(){var t=arguments.length>0&&void 0!==arguments[0]?arguments[0]:0,n=arguments.length>1&&void 0!==arguments[1]?arguments[1]:0,r=this.m,e=r[0]*r[0]+r[1]*r[1],i=[[r[0],r[1]],[r[2],r[3]]],u=D(e);if(0===u)return{origin:{x:r[4],y:r[5]},translate:{x:t,y:n},scale:{x:0,y:0},skew:{x:0,y:0},rotate:0};i[0][0]/=u,i[0][1]/=u;var o=r[0]*r[3]-r[1]*r[2]<0;o&&(u=-u);var a=i[0][0]*i[1][0]+i[0][1]*i[1][1];i[1][0]-=i[0][0]*a,i[1][1]-=i[0][1]*a;var l=D(i[1][0]*i[1][0]+i[1][1]*i[1][1]);if(0===l)return{origin:{x:r[4],y:r[5]},translate:{x:t,y:n},scale:{x:u,y:0},skew:{x:0,y:0},rotate:0};i[1][0]/=l,i[1][1]/=l,a/=l;var f=0;return i[1][1]<0?(f=z(i[1][1])*V,i[0][1]<0&&(f=360-f)):f=L(i[0][1])*V,o&&(f=-f),a=R(a,D(i[0][0]*i[0][0]+i[0][1]*i[0][1]))*V,{origin:{x:r[4],y:r[5]},translate:{x:t,y:n},scale:{x:u,y:l},skew:{x:a,y:0},rotate:f}}},{key:"toString",value:function(){return null===this.s&&(this.s="matrix("+this.m.map($).join(" ")+")"),this.s}},{key:"determinant",get:function(){var t=this.m;return t[0]*t[3]-t[1]*t[2]}},{key:"isIdentity",get:function(){if(null===this.i){var t=this.m;this.i=1===t[0]&&0===t[1]&&0===t[2]&&1===t[3]&&0===t[4]&&0===t[5]}return this.i}}]),t}(),G=/\.0+$/;function $(t){return Number.isInteger(t)?t:t.toFixed(14).replace(G,"")}Object.freeze({M:2,L:2,Z:0,H:1,V:1,C:6,Q:4,T:2,S:4,A:7});function H(t,n,r){return t+(n-t)*r}function Q(t,n,r){var e=arguments.length>3&&void 0!==arguments[3]&&arguments[3],i={x:H(t.x,n.x,r),y:H(t.y,n.y,r)};return e&&(i.a=function(t,n){return Math.atan2(n.y-t.y,n.x-t.x)}(t,n)),i}function U(t,n,r,e){var i=1-e;return i*i*t+2*i*e*n+e*e*r}function Y(t,n,r,e){return 2*(1-e)*(n-t)+2*e*(r-n)}function Z(t,n,r,e){var i=arguments.length>4&&void 0!==arguments[4]&&arguments[4],u={x:U(t.x,n.x,r.x,e),y:U(t.y,n.y,r.y,e)};return i&&(u.a=function(t,n,r,e){return Math.atan2(Y(t.y,n.y,r.y,e),Y(t.x,n.x,r.x,e))}(t,n,r,e)),u}function J(t,n,r,e,i){var u=i*i;return i*u*(e-t+3*(n-r))+3*u*(t+r-2*n)+3*i*(n-t)+t}function K(t,n,r,e,i){var u=1-i;return 3*(u*u*(n-t)+2*u*i*(r-n)+i*i*(e-r))}function W(t,n,r,e,i){var u=arguments.length>5&&void 0!==arguments[5]&&arguments[5],o={x:J(t.x,n.x,r.x,e.x,i),y:J(t.y,n.y,r.y,e.y,i)};return u&&(o.a=function(t,n,r,e,i){return Math.atan2(K(t.y,n.y,r.y,e.y,i),K(t.x,n.x,r.x,e.x,i))}(t,n,r,e,i)),o}function X(t,n,r){var e,i=arguments.length>3&&void 0!==arguments[3]&&arguments[3];if(nt(n)){if(null!=(e=r).start&&!nt(e))return Z(n,r.start,r,t,i)}else if(nt(r)){if(n.end)return Z(n,n.end,r,t,i)}else{if(n.end)return r.start?W(n,n.end,r.start,r,t,i):Z(n,n.end,r,t,i);if(r.start)return Z(n,r.start,r,t,i)}return Q(n,r,t,i)}function tt(t,n,r){var e=X(t,n,r,!0);return e.a=function(t){return arguments.length>1&&void 0!==arguments[1]&&arguments[1]?t+Math.PI:t}(e.a)/h,e}function nt(t){return!t.type||"corner"===t.type}var rt=new N;var et={f:function(t){return t?t.join(" "):""},i:function(n,r,e){if(0===n)return r;if(1===n)return e;var i=r.length;if(i!==e.length)return y(n,r,e);for(var u,o=new Array(i),a=0;a<i;a++){if((u=t(r[a]))!==t(e[a]))return y(n,r,e);if("number"===u)o[a]=d(n,r[a],e[a]);else{if(r[a]!==e[a])return y(n,r,e);o[a]=r[a]}}return o}},it={f:null,i:x,u:function(t,n){return function(r){var e=n(r);t.setAttribute("x1",I(e[0])),t.setAttribute("y1",I(e[1])),t.setAttribute("x2",I(e[2])),t.setAttribute("y2",I(e[3]))}}},ut={f:I,i:d},ot={f:I,i:function(t,n,r){var e=d(t,n,r);return e<=0?0:e>=1?1:e}},at={f:E,i:function(t,n,r){var e,i,u,o=n.length,a=r.length;if(o!==a)if(0===o)n=k(o=a,0);else if(0===a)a=o,r=k(o,0);else{var l=(u=(e=o)*(i=a)/function(t,n){for(var r;n;)r=n,n=t%n,t=r;return t||1}(e,i))<0?-u:u;n=S(n,Math.floor(l/o)),r=S(r,Math.floor(l/a)),o=a=l}for(var f=[],s=0;s<o;s++)f.push(v(g(t,n[s],r[s]),6));return f}};function lt(t,n,r,e,i,u,o,a){return n=function(t,n,r){for(var e,i,u,o=t.length-1,a={},l=0;l<=o;l++)(e=t[l]).e&&(e.e=n(e.e)),e.v&&"g"===(i=e.v).t&&i.r&&(u=r.getElementById(i.r))&&(a[i.r]=u.querySelectorAll("stop"));return a}(t,e,a),function(e){var i,u=r(e,t,ft);return u?"c"===u.t?B(u.v):"g"===u.t?(n[u.r]&&function(t,n){for(var r=0,e=t.length;r<e;r++)t[r].setAttribute("stop-color",B(n[r]))}(n[u.r],u.v),(i=u.r)?"url(#"+i+")":"none"):"none":"none"}}function ft(t,n,r){if(0===t)return n;if(1===t)return r;if(n&&r){var e=n.t;if(e===r.t)switch(n.t){case"c":return{t:e,v:w(t,n.v,r.v)};case"g":if(n.r===r.r)return{t:e,v:A(t,n.v,r.v),r:n.r}}}return y(t,n,r)}var st={blur:p,brightness:g,contrast:g,"drop-shadow":function(t,n,r){return 0===t?n:1===t?r:{blur:p(t,n.blur,r.blur),offset:m(t,n.offset,r.offset),color:w(t,n.color,r.color)}},grayscale:g,"hue-rotate":d,invert:g,opacity:g,saturate:g,sepia:g};function ct(t,n,r){if(0===t)return n;if(1===t)return r;var e=n.length;if(e!==r.length)return y(t,n,r);for(var i,u=[],o=0;o<e;o++){if(n[o].type!==r[o].type)return n;if(!(i=st[n[o].type]))return y(t,n,r);u.push({type:n.type,value:i(t,n[o].value,r[o].value)})}return u}var vt={blur:function(t){return t?function(n){t.setAttribute("stdDeviation",F(n))}:null},brightness:function(t,n,r){return(t=yt(r,n))?function(n){n=I(n),t.map((function(t){return t.setAttribute("slope",n)}))}:null},contrast:function(t,n,r){return(t=yt(r,n))?function(n){var r=I((1-n)/2);n=I(n),t.map((function(t){t.setAttribute("slope",n),t.setAttribute("intercept",r)}))}:null},"drop-shadow":function(t,n,r){var e=r.getElementById(n+"-blur");if(!e)return null;var i=r.getElementById(n+"-offset");if(!i)return null;var u=r.getElementById(n+"-flood");return u?function(t){e.setAttribute("stdDeviation",F(t.blur)),i.setAttribute("dx",I(t.offset.x)),i.setAttribute("dy",I(t.offset.y)),u.setAttribute("flood-color",B(t.color))}:null},grayscale:function(t){return t?function(n){t.setAttribute("values",E(function(t){return[.2126+.7874*(t=1-t),.7152-.7152*t,.0722-.0722*t,0,0,.2126-.2126*t,.7152+.2848*t,.0722-.0722*t,0,0,.2126-.2126*t,.7152-.7152*t,.0722+.9278*t,0,0,0,0,0,1,0]}(n)))}:null},"hue-rotate":function(t){return t?function(n){return t.setAttribute("values",I(n))}:null},invert:function(t,n,r){return(t=yt(r,n))?function(n){n=I(n)+" "+I(1-n),t.map((function(t){return t.setAttribute("tableValues",n)}))}:null},opacity:function(t,n,r){return(t=r.getElementById(n+"-A"))?function(n){return t.setAttribute("tableValues","0 "+I(n))}:null},saturate:function(t){return t?function(n){return t.setAttribute("values",I(n))}:null},sepia:function(t){return t?function(n){return t.setAttribute("values",E(function(t){return[.393+.607*(t=1-t),.769-.769*t,.189-.189*t,0,0,.349-.349*t,.686+.314*t,.168-.168*t,0,0,.272-.272*t,.534-.534*t,.131+.869*t,0,0,0,0,0,1,0]}(n)))}:null}};var ht=["R","G","B"];function yt(t,n){var r=ht.map((function(r){return t.getElementById(n+"-"+r)||null}));return-1!==r.indexOf(null)?null:r}var dt={fill:lt,"fill-opacity":ot,stroke:lt,"stroke-opacity":ot,"stroke-width":ut,"stroke-dashoffset":{f:I,i:d},"stroke-dasharray":at,opacity:ot,transform:function(n,r,e,i){if(!(n=function(n,r){if(!n||"object"!==t(n))return null;var e=!1;for(var i in n)n.hasOwnProperty(i)&&(n[i]&&n[i].length?(n[i].forEach((function(t){t.e&&(t.e=r(t.e))})),e=!0):delete n[i]);return e?n:null}(n,i)))return null;var u=function(t,i,u){var o=arguments.length>3&&void 0!==arguments[3]?arguments[3]:null;return n[t]?e(i,n[t],u):r&&r[t]?r[t]:o};return r&&r.a&&n.o?function(t){var r=e(t,n.o,tt);return rt.recomposeSelf(r,u("r",t,d,0)+r.a,u("k",t,m),u("s",t,m),u("t",t,m)).toString()}:function(t){return rt.recomposeSelf(u("o",t,X,null),u("r",t,d,0),u("k",t,m),u("s",t,m),u("t",t,m)).toString()}},"#filter":function(t,n,r,e,i,u,o,a){if(!n.items||!t||!t.length)return null;var l=function(t,n){var r=(t=t.map((function(t){return t&&vt[t[0]]?(n.getElementById(t[1]),vt[t[0]](n.getElementById(t[1]),t[1],n)):null}))).length;return function(n){for(var e=0;e<r;e++)t[e]&&t[e](n[e].value)}}(n.items,a);return l?(t=function(t,n){return t.map((function(t){return t.e=n(t.e),t}))}(t,e),function(n){l(r(n,t,ct))}):null},"#line":it,points:{f:E,i:x},d:et,r:ut,"#size":q,"#radius":j,_:function(t,n){if(Array.isArray(t))for(var r=0;r<t.length;r++)this[t[r]]=n;else this[t]=n}},gt=function(){function t(r){n(this,t),this.list=r,this.length=r.length}return e(t,[{key:"setAttribute",value:function(t,n){for(var r=this.list,e=0;e<this.length;e++)r[e].setAttribute(t,n)}},{key:"removeAttribute",value:function(t){for(var n=this.list,r=0;r<this.length;r++)n[r].removeAttribute(t)}},{key:"style",value:function(t,n){for(var r=this.list,e=0;e<this.length;e++)r[e].style[t]=n}}]),t}(),mt=/-./g,pt=function(t,n){return n.toUpperCase()};function bt(t){return"function"==typeof t?t:y}function wt(t){return t?"function"==typeof t?t:Array.isArray(t)?function(t){var n=arguments.length>1&&void 0!==arguments[1]?arguments[1]:o;if(!Array.isArray(t))return n;switch(t.length){case 1:return c(t[0])||n;case 2:return c(t[0],t[1])||n;case 4:return l(t[0],t[1],t[2],t[3])||n}return n}(t,null):function(t,n){var r=arguments.length>2&&void 0!==arguments[2]?arguments[2]:o;switch(t){case"linear":return o;case"steps":return c(n.steps||1,n.jump||0)||r;case"bezier":case"cubic-bezier":return l(n.x1||0,n.y1||0,n.x2||0,n.y2||0)||r}return r}(t.type,t.value,null):null}function At(t,n,r){var e=arguments.length>3&&void 0!==arguments[3]&&arguments[3],i=n.length-1;if(t<=n[0].t)return e?[0,0,n[0].v]:n[0].v;if(t>=n[i].t)return e?[i,1,n[i].v]:n[i].v;var u,o=n[0],a=null;for(u=1;u<=i;u++){if(!(t>n[u].t)){a=n[u];break}o=n[u]}return null==a?e?[i,1,n[i].v]:n[i].v:o.t===a.t?e?[u,1,a.v]:a.v:(t=(t-o.t)/(a.t-o.t),o.e&&(t=o.e(t)),e?[u,t,r(t,o.v,a.v)]:r(t,o.v,a.v))}function xt(t,n){var r=arguments.length>2&&void 0!==arguments[2]?arguments[2]:null;return t&&t.length?"function"!=typeof n?null:("function"!=typeof r&&(r=null),function(e){var i=At(e,t,n);return null!=i&&r&&(i=r(i)),i}):null}function kt(t,n){return t.t-n.t}function St(n,r,e,i,u){var o,a="@"===e[0],l="#"===e[0],f=dt[e],s=y;switch(a?(o=e.substr(1),e=o.replace(mt,pt)):l&&(e=e.substr(1)),t(f)){case"function":if(s=f(i,u,At,wt,e,a,r,n),l)return s;break;case"string":s=xt(i,bt(f));break;case"object":if((s=xt(i,bt(f.i),f.f))&&"function"==typeof f.u)return f.u(r,s,e,a,n)}return s?function(t,n,r){if(arguments.length>3&&void 0!==arguments[3]&&arguments[3])return t instanceof gt?function(e){return t.style(n,r(e))}:function(e){return t.style[n]=r(e)};if(Array.isArray(n)){var e=n.length;return function(i){var u=r(i);if(null==u)for(var o=0;o<e;o++)t[o].removeAttribute(n);else for(var a=0;a<e;a++)t[a].setAttribute(n,u)}}return function(e){var i=r(e);null==i?t.removeAttribute(n):t.setAttribute(n,i)}}(r,e,s,a):null}function _t(n,r,e,i){if(!i||"object"!==t(i))return null;var u=null,o=null;return Array.isArray(i)?o=function(t){if(!t||!t.length)return null;for(var n=0;n<t.length;n++)t[n].e&&(t[n].e=wt(t[n].e));return t.sort(kt)}(i):(o=i.keys,u=i.data||null),o?St(n,r,e,o,u):null}function Mt(t,n,r){if(!r)return null;var e=[];for(var i in r)if(r.hasOwnProperty(i)){var u=_t(t,n,i,r[i]);u&&e.push(u)}return e.length?e:null}function It(t,n){if(!n.duration||n.duration<0)return null;var r=function(t,n){if(!n)return null;var r=[];if(Array.isArray(n))for(var e=n.length,i=0;i<e;i++){var u=n[i];if(2===u.length){var o=null;if("string"==typeof u[0])o=t.getElementById(u[0]);else if(Array.isArray(u[0])){o=[];for(var a=0;a<u[0].length;a++)if("string"==typeof u[0][a]){var l=t.getElementById(u[0][a]);l&&o.push(l)}o=o.length?1===o.length?o[0]:new gt(o):null}if(o){var f=Mt(t,o,u[1]);f&&(r=r.concat(f))}}}else for(var s in n)if(n.hasOwnProperty(s)){var c=t.getElementById(s);if(c){var v=Mt(t,c,n[s]);v&&(r=r.concat(v))}}return r.length?r:null}(t,n.elements);return r?function(t,n){var r=arguments.length>2&&void 0!==arguments[2]?arguments[2]:1/0,e=arguments.length>3&&void 0!==arguments[3]?arguments[3]:1,i=arguments.length>4&&void 0!==arguments[4]&&arguments[4],u=arguments.length>5&&void 0!==arguments[5]?arguments[5]:1,o=t.length,a=e>0?n:0;i&&r%2==0&&(a=n-a);var l=null;return function(f,s){var c=f%n,v=1+(f-c)/n;s*=e,i&&v%2==0&&(s=-s);var h=!1;if(v>r)c=a,h=!0,-1===u&&(c=e>0?0:n);else if(s<0&&(c=n-c),c===l)return!1;l=c;for(var y=0;y<o;y++)t[y](c);return h}}(r,n.duration,n.iterations||1/0,n.direction||1,!!n.alternate,n.fill||1):null}var Et=function(){function t(r){var e=arguments.length>1&&void 0!==arguments[1]?arguments[1]:{};n(this,t),this._id=0,this._running=!1,this._animations=r,this.direction=e.direction||1,this.speed=e.speed||1,this.fps=e.fps||100,this.offset=e.offset||0}return e(t,[{key:"_start",value:function(){var t=this,n=arguments.length>0&&void 0!==arguments[0]?arguments[0]:0,r=-1/0,e=null,i={},u=function u(o){t._running=!0,null==e&&(e=o);var a=Math.round((o-e+n)*t.speed),l=t.fps?1e3/t.fps:0;if(a>r+l){t.offset=a,r=a;for(var f=t._animations,s=f.length,c=0,v=0;v<s;v++)i[v]?c++:(i[v]=f[v](a,t.direction),i[v]&&c++);if(c===s)return void t._stop()}t._id=window.requestAnimationFrame(u)};this._id=window.requestAnimationFrame(u)}},{key:"_stop",value:function(){this._id&&window.cancelAnimationFrame(this._id),this._running=!1}},{key:"play",value:function(){this._running||this._start(this.offset)}},{key:"stop",value:function(){this._stop(),this.offset=0;var t=this.direction,n=this._animations;requestAnimationFrame((function(){for(var r=0;r<n.length;r++)n[r](0,t)}))}},{key:"restart",value:function(){this._stop(),this.offset=0,this._start()}},{key:"pause",value:function(){this._stop()}},{key:"reverse",value:function(){this.direction=-this.direction}}],[{key:"build",value:function(n){if(!(n=function(t){if(!t||!t.root||!Array.isArray(t.animations))return null;var n=window.document.getElementById(t.root);if(!n)return null;var r=t.animations.map((function(t){return It(n,t)})).filter((function(t){return!!t}));return r.length?{element:n,animations:r,options:t.options||void 0}:null}(n)))return null;var r=n.element,e=n.options||{},i=new t(n.animations,n.options);return function(t,n,r){var e=arguments.length>3&&void 0!==arguments[3]?arguments[3]:null;if("click"===r){return void n.addEventListener("click",(function r(){n.removeEventListener("click",r),t.play()}))}if("hover"===r)return n.addEventListener("mouseenter",(function(){return t.play()})),void n.addEventListener("mouseleave","freeze"===e?function(){return t.pause()}:function(){return t.stop()});t.play()}(i,r,e.start,e.hover),i}}]),t}();return function(){for(var t=0,n=["ms","moz","webkit","o"],r=0;r<n.length&&!window.requestAnimationFrame;++r)window.requestAnimationFrame=window[n[r]+"RequestAnimationFrame"],window.cancelAnimationFrame=window[n[r]+"CancelAnimationFrame"]||window[n[r]+"CancelRequestAnimationFrame"];window.requestAnimationFrame||(window.requestAnimationFrame=function(n){var r=Date.now(),e=Math.max(0,16-(r-t)),i=window.setTimeout((function(){n(r+e)}),e);return t=r+e,i},window.cancelAnimationFrame=window.clearTimeout)}(),Et}));
__SVGATOR_PLAYER__.build({"root":"eyumwkr4bau1","animations":[{"duration":3000,"direction":1,"iterations":0,"fill":1,"alternate":false,"elements":{"eyumwkr4bau11":{"transform":{"keys":{"o":[{"t":0,"v":{"x":-166.22635134000012,"y":-7,"type":"corner"}},{"t":2500,"v":{"x":-166.22635134000012,"y":-221,"type":"corner"}}]}},"opacity":[{"t":0,"v":0},{"t":2500,"v":1}]},"eyumwkr4bau14":{"transform":{"keys":{"o":[{"t":0,"v":{"x":1.145362389999974,"y":98.5,"type":"corner"}},{"t":2300,"v":{"x":1.145362389999974,"y":-98.5,"type":"corner"}}]}},"opacity":[{"t":0,"v":0},{"t":2300,"v":1}]},"eyumwkr4bau17":{"transform":{"keys":{"o":[{"t":0,"v":{"x":-140,"y":0,"type":"corner"}},{"t":2300,"v":{"x":-57.470505495,"y":-144,"type":"corner"}}]}},"opacity":[{"t":0,"v":0},{"t":2300,"v":1}]},"eyumwkr4bau20":{"opacity":[{"t":0,"v":0},{"t":3000,"v":1}]},"eyumwkr4bau23":{"transform":{"keys":{"o":[{"t":0,"v":{"x":1.6943365999999855,"y":272.2688948999999,"type":"corner"}},{"t":3000,"v":{"x":88.62338513999975,"y":97,"type":"corner"}}]}}},"eyumwkr4bau24":{"opacity":[{"t":0,"v":0},{"t":200,"v":1}]},"eyumwkr4bau27":{"opacity":[{"t":0,"v":1},{"t":100,"v":0}]},"eyumwkr4bau30":{"transform":{"keys":{"o":[{"t":0,"v":{"x":-2,"y":0.09036938000087957,"type":"corner"}},{"t":2200,"v":{"x":1.9817070549993048,"y":-105,"type":"corner"}}]}},"opacity":[{"t":500,"v":0},{"t":1100,"v":1}]},"eyumwkr4bau68":{"transform":{"keys":{"o":[{"t":0,"v":{"x":104.03564690000012,"y":98.4195268150005,"type":"corner"}},{"t":2500,"v":{"x":8.427948,"y":-103,"type":"corner"}}]}},"opacity":[{"t":0,"v":0},{"t":500,"v":1}]},"eyumwkr4bau73":{"transform":{"keys":{"o":[{"t":0,"v":{"x":-82.26481349,"y":120.79230719500052,"type":"corner"}},{"t":2300,"v":{"x":21.772198000000003,"y":-75,"type":"corner"}}]}},"opacity":[{"t":0,"v":0},{"t":2300,"v":1}]}}}],"options":{"start":"load","hover":"freeze"}})]]></script></svg>